<?xml version="1.0" encoding="UTF-8" standalone="no"?>
<!DOCTYPE svg PUBLIC "-//W3C//DTD SVG 1.1//EN"
 "http://www.w3.org/Graphics/SVG/1.1/DTD/svg11.dtd">
<!-- Generated by graphviz version 2.40.1 (20161225.0304)
 -->
<!-- Title: snakemake_dag Pages: 1 -->
<svg width="313pt" height="1124pt"
 viewBox="0.00 0.00 312.50 1124.00" xmlns="http://www.w3.org/2000/svg" xmlns:xlink="http://www.w3.org/1999/xlink">
<g id="graph0" class="graph" transform="scale(1 1) rotate(0) translate(4 1120)">
<title>snakemake_dag</title>
<polygon fill="#ffffff" stroke="transparent" points="-4,4 -4,-1120 308.5,-1120 308.5,4 -4,4"/>
<!-- 0 -->
<g id="node1" class="node">
<title>0</title>
<path fill="none" stroke="#d86656" stroke-width="2" d="M54,-36C54,-36 24,-36 24,-36 18,-36 12,-30 12,-24 12,-24 12,-12 12,-12 12,-6 18,0 24,0 24,0 54,0 54,0 60,0 66,-6 66,-12 66,-12 66,-24 66,-24 66,-30 60,-36 54,-36"/>
<text text-anchor="middle" x="39" y="-15.5" font-family="sans" font-size="10.00" fill="#000000">all</text>
</g>
<!-- 1 -->
<g id="node2" class="node">
<title>1</title>
<path fill="none" stroke="#56d0d8" stroke-width="2" d="M66,-108C66,-108 12,-108 12,-108 6,-108 0,-102 0,-96 0,-96 0,-84 0,-84 0,-78 6,-72 12,-72 12,-72 66,-72 66,-72 72,-72 78,-78 78,-84 78,-84 78,-96 78,-96 78,-102 72,-108 66,-108"/>
<text text-anchor="middle" x="39" y="-87.5" font-family="sans" font-size="10.00" fill="#000000">write_output</text>
</g>
<!-- 1&#45;&gt;0 -->
<g id="edge1" class="edge">
<title>1&#45;&gt;0</title>
<path fill="none" stroke="#c0c0c0" stroke-width="2" d="M39,-71.8314C39,-64.131 39,-54.9743 39,-46.4166"/>
<polygon fill="#c0c0c0" stroke="#c0c0c0" stroke-width="2" points="42.5001,-46.4132 39,-36.4133 35.5001,-46.4133 42.5001,-46.4132"/>
</g>
<!-- 2 -->
<g id="node3" class="node">
<title>2</title>
<path fill="none" stroke="#bed856" stroke-width="2" d="M61,-180C61,-180 17,-180 17,-180 11,-180 5,-174 5,-168 5,-168 5,-156 5,-156 5,-150 11,-144 17,-144 17,-144 61,-144 61,-144 67,-144 73,-150 73,-156 73,-156 73,-168 73,-168 73,-174 67,-180 61,-180"/>
<text text-anchor="middle" x="39" y="-159.5" font-family="sans" font-size="10.00" fill="#000000">run_model</text>
</g>
<!-- 2&#45;&gt;1 -->
<g id="edge2" class="edge">
<title>2&#45;&gt;1</title>
<path fill="none" stroke="#c0c0c0" stroke-width="2" d="M39,-143.8314C39,-136.131 39,-126.9743 39,-118.4166"/>
<polygon fill="#c0c0c0" stroke="#c0c0c0" stroke-width="2" points="42.5001,-118.4132 39,-108.4133 35.5001,-118.4133 42.5001,-118.4132"/>
</g>
<!-- 3 -->
<g id="node4" class="node">
<title>3</title>
<path fill="none" stroke="#569ad8" stroke-width="2" d="M124,-324C124,-324 80,-324 80,-324 74,-324 68,-318 68,-312 68,-312 68,-300 68,-300 68,-294 74,-288 80,-288 80,-288 124,-288 124,-288 130,-288 136,-294 136,-300 136,-300 136,-312 136,-312 136,-318 130,-324 124,-324"/>
<text text-anchor="middle" x="102" y="-303.5" font-family="sans" font-size="10.00" fill="#000000">zip_output</text>
</g>
<!-- 3&#45;&gt;2 -->
<g id="edge3" class="edge">
<title>3&#45;&gt;2</title>
<path fill="none" stroke="#c0c0c0" stroke-width="2" d="M83.2389,-287.5576C74.3174,-277.7765 64.2582,-265.0929 58,-252 48.6737,-232.4883 43.8976,-208.4348 41.4676,-190.1046"/>
<polygon fill="#c0c0c0" stroke="#c0c0c0" stroke-width="2" points="44.9297,-189.5765 40.2912,-180.051 37.9772,-190.39 44.9297,-189.5765"/>
</g>
<!-- 16 -->
<g id="node17" class="node">
<title>16</title>
<path fill="none" stroke="#56d8d0" stroke-width="2" d="M135,-252C135,-252 79,-252 79,-252 73,-252 67,-246 67,-240 67,-240 67,-228 67,-228 67,-222 73,-216 79,-216 79,-216 135,-216 135,-216 141,-216 147,-222 147,-228 147,-228 147,-240 147,-240 147,-246 141,-252 135,-252"/>
<text text-anchor="middle" x="107" y="-231.5" font-family="sans" font-size="10.00" fill="#000000">index_output</text>
</g>
<!-- 3&#45;&gt;16 -->
<g id="edge20" class="edge">
<title>3&#45;&gt;16</title>
<path fill="none" stroke="#c0c0c0" stroke-width="2" d="M103.2617,-287.8314C103.7965,-280.131 104.4323,-270.9743 105.0266,-262.4166"/>
<polygon fill="#c0c0c0" stroke="#c0c0c0" stroke-width="2" points="108.52,-262.6317 105.7213,-252.4133 101.5368,-262.1467 108.52,-262.6317"/>
</g>
<!-- 4 -->
<g id="node5" class="node">
<title>4</title>
<path fill="none" stroke="#566bd8" stroke-width="2" d="M134,-396C134,-396 70,-396 70,-396 64,-396 58,-390 58,-384 58,-384 58,-372 58,-372 58,-366 64,-360 70,-360 70,-360 134,-360 134,-360 140,-360 146,-366 146,-372 146,-372 146,-384 146,-384 146,-390 140,-396 134,-396"/>
<text text-anchor="middle" x="102" y="-375.5" font-family="sans" font-size="10.00" fill="#000000">make_mixture</text>
</g>
<!-- 4&#45;&gt;3 -->
<g id="edge6" class="edge">
<title>4&#45;&gt;3</title>
<path fill="none" stroke="#c0c0c0" stroke-width="2" d="M102,-359.8314C102,-352.131 102,-342.9743 102,-334.4166"/>
<polygon fill="#c0c0c0" stroke="#c0c0c0" stroke-width="2" points="105.5001,-334.4132 102,-324.4133 98.5001,-334.4133 105.5001,-334.4132"/>
</g>
<!-- 5 -->
<g id="node6" class="node">
<title>5</title>
<path fill="none" stroke="#d8d356" stroke-width="2" d="M151.5,-468C151.5,-468 52.5,-468 52.5,-468 46.5,-468 40.5,-462 40.5,-456 40.5,-456 40.5,-444 40.5,-444 40.5,-438 46.5,-432 52.5,-432 52.5,-432 151.5,-432 151.5,-432 157.5,-432 163.5,-438 163.5,-444 163.5,-444 163.5,-456 163.5,-456 163.5,-462 157.5,-468 151.5,-468"/>
<text text-anchor="middle" x="102" y="-447.5" font-family="sans" font-size="10.00" fill="#000000">sample_from_epiread</text>
</g>
<!-- 5&#45;&gt;4 -->
<g id="edge7" class="edge">
<title>5&#45;&gt;4</title>
<path fill="none" stroke="#c0c0c0" stroke-width="2" d="M102,-431.8314C102,-424.131 102,-414.9743 102,-406.4166"/>
<polygon fill="#c0c0c0" stroke="#c0c0c0" stroke-width="2" points="105.5001,-406.4132 102,-396.4133 98.5001,-406.4133 105.5001,-406.4132"/>
</g>
<!-- 6 -->
<g id="node7" class="node">
<title>6</title>
<path fill="none" stroke="#d89c56" stroke-width="2" d="M135.5,-684C135.5,-684 70.5,-684 70.5,-684 64.5,-684 58.5,-678 58.5,-672 58.5,-672 58.5,-660 58.5,-660 58.5,-654 64.5,-648 70.5,-648 70.5,-648 135.5,-648 135.5,-648 141.5,-648 147.5,-654 147.5,-660 147.5,-660 147.5,-672 147.5,-672 147.5,-678 141.5,-684 135.5,-684"/>
<text text-anchor="middle" x="103" y="-663.5" font-family="sans" font-size="10.00" fill="#000000">merge_bioreps</text>
</g>
<!-- 6&#45;&gt;5 -->
<g id="edge9" class="edge">
<title>6&#45;&gt;5</title>
<path fill="none" stroke="#c0c0c0" stroke-width="2" d="M102.9165,-647.9555C102.7426,-610.3938 102.3405,-523.5541 102.1315,-478.4103"/>
<polygon fill="#c0c0c0" stroke="#c0c0c0" stroke-width="2" points="105.6304,-478.1287 102.084,-468.1451 98.6304,-478.1612 105.6304,-478.1287"/>
</g>
<!-- 15 -->
<g id="node16" class="node">
<title>15</title>
<path fill="none" stroke="#9fd856" stroke-width="2" d="M209.5,-612C209.5,-612 138.5,-612 138.5,-612 132.5,-612 126.5,-606 126.5,-600 126.5,-600 126.5,-588 126.5,-588 126.5,-582 132.5,-576 138.5,-576 138.5,-576 209.5,-576 209.5,-576 215.5,-576 221.5,-582 221.5,-588 221.5,-588 221.5,-600 221.5,-600 221.5,-606 215.5,-612 209.5,-612"/>
<text text-anchor="middle" x="174" y="-591.5" font-family="sans" font-size="10.00" fill="#000000">measure_length</text>
</g>
<!-- 6&#45;&gt;15 -->
<g id="edge19" class="edge">
<title>6&#45;&gt;15</title>
<path fill="none" stroke="#c0c0c0" stroke-width="2" d="M120.9163,-647.8314C129.3442,-639.2848 139.541,-628.9443 148.736,-619.6198"/>
<polygon fill="#c0c0c0" stroke="#c0c0c0" stroke-width="2" points="151.3131,-621.9912 155.8425,-612.4133 146.3289,-617.0761 151.3131,-621.9912"/>
</g>
<!-- 7 -->
<g id="node8" class="node">
<title>7</title>
<path fill="none" stroke="#567bd8" stroke-width="2" d="M165.5,-756C165.5,-756 40.5,-756 40.5,-756 34.5,-756 28.5,-750 28.5,-744 28.5,-744 28.5,-732 28.5,-732 28.5,-726 34.5,-720 40.5,-720 40.5,-720 165.5,-720 165.5,-720 171.5,-720 177.5,-726 177.5,-732 177.5,-732 177.5,-744 177.5,-744 177.5,-750 171.5,-756 165.5,-756"/>
<text text-anchor="middle" x="103" y="-735.5" font-family="sans" font-size="10.00" fill="#000000">cut_regions_from_epireads</text>
</g>
<!-- 7&#45;&gt;6 -->
<g id="edge10" class="edge">
<title>7&#45;&gt;6</title>
<path fill="none" stroke="#c0c0c0" stroke-width="2" d="M103,-719.8314C103,-712.131 103,-702.9743 103,-694.4166"/>
<polygon fill="#c0c0c0" stroke="#c0c0c0" stroke-width="2" points="106.5001,-694.4132 103,-684.4133 99.5001,-694.4133 106.5001,-694.4132"/>
</g>
<!-- 8 -->
<g id="node9" class="node">
<title>8</title>
<path fill="none" stroke="#88d856" stroke-width="2" d="M146,-828C146,-828 60,-828 60,-828 54,-828 48,-822 48,-816 48,-816 48,-804 48,-804 48,-798 54,-792 60,-792 60,-792 146,-792 146,-792 152,-792 158,-798 158,-804 158,-804 158,-816 158,-816 158,-822 152,-828 146,-828"/>
<text text-anchor="middle" x="103" y="-807.5" font-family="sans" font-size="10.00" fill="#000000">merge_regions_file</text>
</g>
<!-- 8&#45;&gt;7 -->
<g id="edge11" class="edge">
<title>8&#45;&gt;7</title>
<path fill="none" stroke="#c0c0c0" stroke-width="2" d="M103,-791.8314C103,-784.131 103,-774.9743 103,-766.4166"/>
<polygon fill="#c0c0c0" stroke="#c0c0c0" stroke-width="2" points="106.5001,-766.4132 103,-756.4133 99.5001,-766.4133 106.5001,-766.4132"/>
</g>
<!-- 9 -->
<g id="node10" class="node">
<title>9</title>
<path fill="none" stroke="#68d856" stroke-width="2" d="M139.5,-900C139.5,-900 66.5,-900 66.5,-900 60.5,-900 54.5,-894 54.5,-888 54.5,-888 54.5,-876 54.5,-876 54.5,-870 60.5,-864 66.5,-864 66.5,-864 139.5,-864 139.5,-864 145.5,-864 151.5,-870 151.5,-876 151.5,-876 151.5,-888 151.5,-888 151.5,-894 145.5,-900 139.5,-900"/>
<text text-anchor="middle" x="103" y="-879.5" font-family="sans" font-size="10.00" fill="#000000">sort_regions_file</text>
</g>
<!-- 9&#45;&gt;8 -->
<g id="edge12" class="edge">
<title>9&#45;&gt;8</title>
<path fill="none" stroke="#c0c0c0" stroke-width="2" d="M103,-863.8314C103,-856.131 103,-846.9743 103,-838.4166"/>
<polygon fill="#c0c0c0" stroke="#c0c0c0" stroke-width="2" points="106.5001,-838.4132 103,-828.4133 99.5001,-838.4133 106.5001,-838.4132"/>
</g>
<!-- 14 -->
<g id="node15" class="node">
<title>14</title>
<path fill="none" stroke="#59d856" stroke-width="2" d="M292.5,-756C292.5,-756 207.5,-756 207.5,-756 201.5,-756 195.5,-750 195.5,-744 195.5,-744 195.5,-732 195.5,-732 195.5,-726 201.5,-720 207.5,-720 207.5,-720 292.5,-720 292.5,-720 298.5,-720 304.5,-726 304.5,-732 304.5,-732 304.5,-744 304.5,-744 304.5,-750 298.5,-756 292.5,-756"/>
<text text-anchor="middle" x="250" y="-735.5" font-family="sans" font-size="10.00" fill="#000000">atlas_over_regions</text>
</g>
<!-- 9&#45;&gt;14 -->
<g id="edge18" class="edge">
<title>9&#45;&gt;14</title>
<path fill="none" stroke="#c0c0c0" stroke-width="2" d="M125.8103,-863.9202C138.3036,-853.7323 153.8701,-840.5633 167,-828 188.4416,-807.4838 211.183,-782.5764 227.4289,-764.1697"/>
<polygon fill="#c0c0c0" stroke="#c0c0c0" stroke-width="2" points="230.4474,-766.0359 234.4081,-756.2092 225.1839,-761.4212 230.4474,-766.0359"/>
</g>
<!-- 10 -->
<g id="node11" class="node">
<title>10</title>
<path fill="none" stroke="#d87556" stroke-width="2" d="M72,-972C72,-972 32,-972 32,-972 26,-972 20,-966 20,-960 20,-960 20,-948 20,-948 20,-942 26,-936 32,-936 32,-936 72,-936 72,-936 78,-936 84,-942 84,-948 84,-948 84,-960 84,-960 84,-966 78,-972 72,-972"/>
<text text-anchor="middle" x="52" y="-951.5" font-family="sans" font-size="10.00" fill="#000000">slop_tims</text>
</g>
<!-- 10&#45;&gt;2 -->
<g id="edge4" class="edge">
<title>10&#45;&gt;2</title>
<path fill="none" stroke="#c0c0c0" stroke-width="2" d="M40.9338,-935.6389C25.9342,-908.961 1,-857.4737 1,-810 1,-810 1,-810 1,-306 1,-264.3681 16.0328,-218.14 27.1881,-189.567"/>
<polygon fill="#c0c0c0" stroke="#c0c0c0" stroke-width="2" points="30.4578,-190.817 30.9412,-180.2332 23.9632,-188.2055 30.4578,-190.817"/>
</g>
<!-- 10&#45;&gt;9 -->
<g id="edge13" class="edge">
<title>10&#45;&gt;9</title>
<path fill="none" stroke="#c0c0c0" stroke-width="2" d="M64.8695,-935.8314C70.6835,-927.6232 77.6696,-917.7606 84.0646,-908.7323"/>
<polygon fill="#c0c0c0" stroke="#c0c0c0" stroke-width="2" points="87.0331,-910.5966 89.9573,-900.4133 81.321,-906.5505 87.0331,-910.5966"/>
</g>
<!-- 11 -->
<g id="node12" class="node">
<title>11</title>
<path fill="none" stroke="#d8bc56" stroke-width="2" d="M86.5,-1044C86.5,-1044 17.5,-1044 17.5,-1044 11.5,-1044 5.5,-1038 5.5,-1032 5.5,-1032 5.5,-1020 5.5,-1020 5.5,-1014 11.5,-1008 17.5,-1008 17.5,-1008 86.5,-1008 86.5,-1008 92.5,-1008 98.5,-1014 98.5,-1020 98.5,-1020 98.5,-1032 98.5,-1032 98.5,-1038 92.5,-1044 86.5,-1044"/>
<text text-anchor="middle" x="52" y="-1023.5" font-family="sans" font-size="10.00" fill="#000000">remove_header</text>
</g>
<!-- 11&#45;&gt;10 -->
<g id="edge14" class="edge">
<title>11&#45;&gt;10</title>
<path fill="none" stroke="#c0c0c0" stroke-width="2" d="M52,-1007.8314C52,-1000.131 52,-990.9743 52,-982.4166"/>
<polygon fill="#c0c0c0" stroke="#c0c0c0" stroke-width="2" points="55.5001,-982.4132 52,-972.4133 48.5001,-982.4133 55.5001,-982.4132"/>
</g>
<!-- 12 -->
<g id="node13" class="node">
<title>12</title>
<path fill="none" stroke="#568ad8" stroke-width="2" d="M83.5,-1116C83.5,-1116 20.5,-1116 20.5,-1116 14.5,-1116 8.5,-1110 8.5,-1104 8.5,-1104 8.5,-1092 8.5,-1092 8.5,-1086 14.5,-1080 20.5,-1080 20.5,-1080 83.5,-1080 83.5,-1080 89.5,-1080 95.5,-1086 95.5,-1092 95.5,-1092 95.5,-1104 95.5,-1104 95.5,-1110 89.5,-1116 83.5,-1116"/>
<text text-anchor="middle" x="52" y="-1095.5" font-family="sans" font-size="10.00" fill="#000000">generate_tims</text>
</g>
<!-- 12&#45;&gt;11 -->
<g id="edge15" class="edge">
<title>12&#45;&gt;11</title>
<path fill="none" stroke="#c0c0c0" stroke-width="2" d="M52,-1079.8314C52,-1072.131 52,-1062.9743 52,-1054.4166"/>
<polygon fill="#c0c0c0" stroke="#c0c0c0" stroke-width="2" points="55.5001,-1054.4132 52,-1044.4133 48.5001,-1054.4133 55.5001,-1054.4132"/>
</g>
<!-- 13 -->
<g id="node14" class="node">
<title>13</title>
<path fill="none" stroke="#d8ac56" stroke-width="2" d="M208.5,-540C208.5,-540 139.5,-540 139.5,-540 133.5,-540 127.5,-534 127.5,-528 127.5,-528 127.5,-516 127.5,-516 127.5,-510 133.5,-504 139.5,-504 139.5,-504 208.5,-504 208.5,-504 214.5,-504 220.5,-510 220.5,-516 220.5,-516 220.5,-528 220.5,-528 220.5,-534 214.5,-540 208.5,-540"/>
<text text-anchor="middle" x="174" y="-519.5" font-family="sans" font-size="10.00" fill="#000000">calculate_reads</text>
</g>
<!-- 13&#45;&gt;5 -->
<g id="edge8" class="edge">
<title>13&#45;&gt;5</title>
<path fill="none" stroke="#c0c0c0" stroke-width="2" d="M155.8314,-503.8314C147.2848,-495.2848 136.9443,-484.9443 127.6198,-475.6198"/>
<polygon fill="#c0c0c0" stroke="#c0c0c0" stroke-width="2" points="129.9592,-473.0095 120.4133,-468.4133 125.0095,-477.9592 129.9592,-473.0095"/>
</g>
<!-- 14&#45;&gt;13 -->
<g id="edge17" class="edge">
<title>14&#45;&gt;13</title>
<path fill="none" stroke="#c0c0c0" stroke-width="2" d="M251.7394,-719.8561C253.9188,-688.6523 254.8531,-623.5947 231,-576 225.465,-564.9558 216.7056,-554.9638 207.6984,-546.663"/>
<polygon fill="#c0c0c0" stroke="#c0c0c0" stroke-width="2" points="209.9858,-544.0138 200.1394,-540.1022 205.3973,-549.3003 209.9858,-544.0138"/>
</g>
<!-- 15&#45;&gt;13 -->
<g id="edge16" class="edge">
<title>15&#45;&gt;13</title>
<path fill="none" stroke="#c0c0c0" stroke-width="2" d="M174,-575.8314C174,-568.131 174,-558.9743 174,-550.4166"/>
<polygon fill="#c0c0c0" stroke="#c0c0c0" stroke-width="2" points="177.5001,-550.4132 174,-540.4133 170.5001,-550.4133 177.5001,-550.4132"/>
</g>
<!-- 16&#45;&gt;2 -->
<g id="edge5" class="edge">
<title>16&#45;&gt;2</title>
<path fill="none" stroke="#c0c0c0" stroke-width="2" d="M89.8407,-215.8314C81.8489,-207.3694 72.1962,-197.1489 63.4584,-187.8971"/>
<polygon fill="#c0c0c0" stroke="#c0c0c0" stroke-width="2" points="65.8011,-185.2802 56.3903,-180.4133 60.712,-190.0866 65.8011,-185.2802"/>
</g>
</g>
</svg>
