<?xml version="1.0" encoding="UTF-8" standalone="no"?>
<!DOCTYPE svg PUBLIC "-//W3C//DTD SVG 1.1//EN"
 "http://www.w3.org/Graphics/SVG/1.1/DTD/svg11.dtd">
<!-- Generated by graphviz version 2.40.1 (20161225.0304)
 -->
<!-- Title: snakemake_dag Pages: 1 -->
<svg width="316pt" height="1988pt"
 viewBox="0.00 0.00 316.00 1988.00" xmlns="http://www.w3.org/2000/svg" xmlns:xlink="http://www.w3.org/1999/xlink">
<g id="graph0" class="graph" transform="scale(1 1) rotate(0) translate(4 1984)">
<title>snakemake_dag</title>
<polygon fill="#ffffff" stroke="transparent" points="-4,4 -4,-1984 312,-1984 312,4 -4,4"/>
<!-- 0 -->
<g id="node1" class="node">
<title>0</title>
<path fill="none" stroke="#567bd8" stroke-width="2" d="M76.5,-36C76.5,-36 46.5,-36 46.5,-36 40.5,-36 34.5,-30 34.5,-24 34.5,-24 34.5,-12 34.5,-12 34.5,-6 40.5,0 46.5,0 46.5,0 76.5,0 76.5,0 82.5,0 88.5,-6 88.5,-12 88.5,-12 88.5,-24 88.5,-24 88.5,-30 82.5,-36 76.5,-36"/>
<text text-anchor="middle" x="61.5" y="-15.5" font-family="sans" font-size="10.00" fill="#000000">all</text>
</g>
<!-- 1 -->
<g id="node2" class="node">
<title>1</title>
<path fill="none" stroke="#56d8d0" stroke-width="2" d="M88.5,-108C88.5,-108 34.5,-108 34.5,-108 28.5,-108 22.5,-102 22.5,-96 22.5,-96 22.5,-84 22.5,-84 22.5,-78 28.5,-72 34.5,-72 34.5,-72 88.5,-72 88.5,-72 94.5,-72 100.5,-78 100.5,-84 100.5,-84 100.5,-96 100.5,-96 100.5,-102 94.5,-108 88.5,-108"/>
<text text-anchor="middle" x="61.5" y="-87.5" font-family="sans" font-size="10.00" fill="#000000">write_output</text>
</g>
<!-- 1&#45;&gt;0 -->
<g id="edge1" class="edge">
<title>1&#45;&gt;0</title>
<path fill="none" stroke="#c0c0c0" stroke-width="2" d="M61.5,-71.8314C61.5,-64.131 61.5,-54.9743 61.5,-46.4166"/>
<polygon fill="#c0c0c0" stroke="#c0c0c0" stroke-width="2" points="65.0001,-46.4132 61.5,-36.4133 58.0001,-46.4133 65.0001,-46.4132"/>
</g>
<!-- 2 -->
<g id="node3" class="node">
<title>2</title>
<path fill="none" stroke="#d8d356" stroke-width="2" d="M83.5,-180C83.5,-180 39.5,-180 39.5,-180 33.5,-180 27.5,-174 27.5,-168 27.5,-168 27.5,-156 27.5,-156 27.5,-150 33.5,-144 39.5,-144 39.5,-144 83.5,-144 83.5,-144 89.5,-144 95.5,-150 95.5,-156 95.5,-156 95.5,-168 95.5,-168 95.5,-174 89.5,-180 83.5,-180"/>
<text text-anchor="middle" x="61.5" y="-159.5" font-family="sans" font-size="10.00" fill="#000000">run_model</text>
</g>
<!-- 2&#45;&gt;1 -->
<g id="edge2" class="edge">
<title>2&#45;&gt;1</title>
<path fill="none" stroke="#c0c0c0" stroke-width="2" d="M61.5,-143.8314C61.5,-136.131 61.5,-126.9743 61.5,-118.4166"/>
<polygon fill="#c0c0c0" stroke="#c0c0c0" stroke-width="2" points="65.0001,-118.4132 61.5,-108.4133 58.0001,-118.4133 65.0001,-118.4132"/>
</g>
<!-- 3 -->
<g id="node4" class="node">
<title>3</title>
<path fill="none" stroke="#d86656" stroke-width="2" d="M162.5,-324C162.5,-324 118.5,-324 118.5,-324 112.5,-324 106.5,-318 106.5,-312 106.5,-312 106.5,-300 106.5,-300 106.5,-294 112.5,-288 118.5,-288 118.5,-288 162.5,-288 162.5,-288 168.5,-288 174.5,-294 174.5,-300 174.5,-300 174.5,-312 174.5,-312 174.5,-318 168.5,-324 162.5,-324"/>
<text text-anchor="middle" x="140.5" y="-303.5" font-family="sans" font-size="10.00" fill="#000000">zip_output</text>
</g>
<!-- 3&#45;&gt;2 -->
<g id="edge5" class="edge">
<title>3&#45;&gt;2</title>
<path fill="none" stroke="#c0c0c0" stroke-width="2" d="M124.869,-287.812C116.6567,-277.6986 106.8089,-264.6343 99.5,-252 87.9629,-232.0567 77.9699,-207.9367 71.1309,-189.6883"/>
<polygon fill="#c0c0c0" stroke="#c0c0c0" stroke-width="2" points="74.389,-188.4069 67.6661,-180.2182 67.8151,-190.812 74.389,-188.4069"/>
</g>
<!-- 28 -->
<g id="node29" class="node">
<title>28</title>
<path fill="none" stroke="#56d88a" stroke-width="2" d="M176.5,-252C176.5,-252 120.5,-252 120.5,-252 114.5,-252 108.5,-246 108.5,-240 108.5,-240 108.5,-228 108.5,-228 108.5,-222 114.5,-216 120.5,-216 120.5,-216 176.5,-216 176.5,-216 182.5,-216 188.5,-222 188.5,-228 188.5,-228 188.5,-240 188.5,-240 188.5,-246 182.5,-252 176.5,-252"/>
<text text-anchor="middle" x="148.5" y="-231.5" font-family="sans" font-size="10.00" fill="#000000">index_output</text>
</g>
<!-- 3&#45;&gt;28 -->
<g id="edge35" class="edge">
<title>3&#45;&gt;28</title>
<path fill="none" stroke="#c0c0c0" stroke-width="2" d="M142.5187,-287.8314C143.3743,-280.131 144.3917,-270.9743 145.3426,-262.4166"/>
<polygon fill="#c0c0c0" stroke="#c0c0c0" stroke-width="2" points="148.8283,-262.7386 146.4541,-252.4133 141.8711,-261.9656 148.8283,-262.7386"/>
</g>
<!-- 4 -->
<g id="node5" class="node">
<title>4</title>
<path fill="none" stroke="#68d856" stroke-width="2" d="M172.5,-396C172.5,-396 108.5,-396 108.5,-396 102.5,-396 96.5,-390 96.5,-384 96.5,-384 96.5,-372 96.5,-372 96.5,-366 102.5,-360 108.5,-360 108.5,-360 172.5,-360 172.5,-360 178.5,-360 184.5,-366 184.5,-372 184.5,-372 184.5,-384 184.5,-384 184.5,-390 178.5,-396 172.5,-396"/>
<text text-anchor="middle" x="140.5" y="-375.5" font-family="sans" font-size="10.00" fill="#000000">make_mixture</text>
</g>
<!-- 4&#45;&gt;3 -->
<g id="edge7" class="edge">
<title>4&#45;&gt;3</title>
<path fill="none" stroke="#c0c0c0" stroke-width="2" d="M140.5,-359.8314C140.5,-352.131 140.5,-342.9743 140.5,-334.4166"/>
<polygon fill="#c0c0c0" stroke="#c0c0c0" stroke-width="2" points="144.0001,-334.4132 140.5,-324.4133 137.0001,-334.4133 144.0001,-334.4132"/>
</g>
<!-- 5 -->
<g id="node6" class="node">
<title>5</title>
<path fill="none" stroke="#d8ac56" stroke-width="2" d="M190,-468C190,-468 91,-468 91,-468 85,-468 79,-462 79,-456 79,-456 79,-444 79,-444 79,-438 85,-432 91,-432 91,-432 190,-432 190,-432 196,-432 202,-438 202,-444 202,-444 202,-456 202,-456 202,-462 196,-468 190,-468"/>
<text text-anchor="middle" x="140.5" y="-447.5" font-family="sans" font-size="10.00" fill="#000000">sample_from_epiread</text>
</g>
<!-- 5&#45;&gt;4 -->
<g id="edge8" class="edge">
<title>5&#45;&gt;4</title>
<path fill="none" stroke="#c0c0c0" stroke-width="2" d="M140.5,-431.8314C140.5,-424.131 140.5,-414.9743 140.5,-406.4166"/>
<polygon fill="#c0c0c0" stroke="#c0c0c0" stroke-width="2" points="144.0001,-406.4132 140.5,-396.4133 137.0001,-406.4133 144.0001,-406.4132"/>
</g>
<!-- 6 -->
<g id="node7" class="node">
<title>6</title>
<path fill="none" stroke="#56d0d8" stroke-width="2" d="M177,-684C177,-684 112,-684 112,-684 106,-684 100,-678 100,-672 100,-672 100,-660 100,-660 100,-654 106,-648 112,-648 112,-648 177,-648 177,-648 183,-648 189,-654 189,-660 189,-660 189,-672 189,-672 189,-678 183,-684 177,-684"/>
<text text-anchor="middle" x="144.5" y="-663.5" font-family="sans" font-size="10.00" fill="#000000">merge_bioreps</text>
</g>
<!-- 6&#45;&gt;5 -->
<g id="edge9" class="edge">
<title>6&#45;&gt;5</title>
<path fill="none" stroke="#c0c0c0" stroke-width="2" d="M134.0441,-647.6605C128.8542,-637.5026 123.1409,-624.4443 120.5,-612 117.3347,-597.0843 119.2778,-522.2496 122.5,-504 124.0392,-495.2826 126.7051,-486.0541 129.5208,-477.7396"/>
<polygon fill="#c0c0c0" stroke="#c0c0c0" stroke-width="2" points="132.8798,-478.7413 132.9639,-468.1468 126.2914,-476.3764 132.8798,-478.7413"/>
</g>
<!-- 27 -->
<g id="node28" class="node">
<title>27</title>
<path fill="none" stroke="#88d856" stroke-width="2" d="M213,-612C213,-612 142,-612 142,-612 136,-612 130,-606 130,-600 130,-600 130,-588 130,-588 130,-582 136,-576 142,-576 142,-576 213,-576 213,-576 219,-576 225,-582 225,-588 225,-588 225,-600 225,-600 225,-606 219,-612 213,-612"/>
<text text-anchor="middle" x="177.5" y="-591.5" font-family="sans" font-size="10.00" fill="#000000">measure_length</text>
</g>
<!-- 6&#45;&gt;27 -->
<g id="edge34" class="edge">
<title>6&#45;&gt;27</title>
<path fill="none" stroke="#c0c0c0" stroke-width="2" d="M152.8273,-647.8314C156.473,-639.8771 160.8309,-630.369 164.8627,-621.5723"/>
<polygon fill="#c0c0c0" stroke="#c0c0c0" stroke-width="2" points="168.0757,-622.9622 169.0606,-612.4133 161.7123,-620.0456 168.0757,-622.9622"/>
</g>
<!-- 7 -->
<g id="node8" class="node">
<title>7</title>
<path fill="none" stroke="#569ad8" stroke-width="2" d="M207,-756C207,-756 82,-756 82,-756 76,-756 70,-750 70,-744 70,-744 70,-732 70,-732 70,-726 76,-720 82,-720 82,-720 207,-720 207,-720 213,-720 219,-726 219,-732 219,-732 219,-744 219,-744 219,-750 213,-756 207,-756"/>
<text text-anchor="middle" x="144.5" y="-735.5" font-family="sans" font-size="10.00" fill="#000000">cut_regions_from_epireads</text>
</g>
<!-- 7&#45;&gt;6 -->
<g id="edge11" class="edge">
<title>7&#45;&gt;6</title>
<path fill="none" stroke="#c0c0c0" stroke-width="2" d="M144.5,-719.8314C144.5,-712.131 144.5,-702.9743 144.5,-694.4166"/>
<polygon fill="#c0c0c0" stroke="#c0c0c0" stroke-width="2" points="148.0001,-694.4132 144.5,-684.4133 141.0001,-694.4133 148.0001,-694.4132"/>
</g>
<!-- 8 -->
<g id="node9" class="node">
<title>8</title>
<path fill="none" stroke="#56d87b" stroke-width="2" d="M168.5,-828C168.5,-828 82.5,-828 82.5,-828 76.5,-828 70.5,-822 70.5,-816 70.5,-816 70.5,-804 70.5,-804 70.5,-798 76.5,-792 82.5,-792 82.5,-792 168.5,-792 168.5,-792 174.5,-792 180.5,-798 180.5,-804 180.5,-804 180.5,-816 180.5,-816 180.5,-822 174.5,-828 168.5,-828"/>
<text text-anchor="middle" x="125.5" y="-807.5" font-family="sans" font-size="10.00" fill="#000000">merge_regions_file</text>
</g>
<!-- 8&#45;&gt;7 -->
<g id="edge12" class="edge">
<title>8&#45;&gt;7</title>
<path fill="none" stroke="#c0c0c0" stroke-width="2" d="M130.2945,-791.8314C132.3489,-784.0463 134.796,-774.7729 137.0756,-766.1347"/>
<polygon fill="#c0c0c0" stroke="#c0c0c0" stroke-width="2" points="140.4735,-766.9753 139.6409,-756.4133 133.7052,-765.1892 140.4735,-766.9753"/>
</g>
<!-- 9 -->
<g id="node10" class="node">
<title>9</title>
<path fill="none" stroke="#59d856" stroke-width="2" d="M162,-900C162,-900 89,-900 89,-900 83,-900 77,-894 77,-888 77,-888 77,-876 77,-876 77,-870 83,-864 89,-864 89,-864 162,-864 162,-864 168,-864 174,-870 174,-876 174,-876 174,-888 174,-888 174,-894 168,-900 162,-900"/>
<text text-anchor="middle" x="125.5" y="-879.5" font-family="sans" font-size="10.00" fill="#000000">sort_regions_file</text>
</g>
<!-- 9&#45;&gt;8 -->
<g id="edge13" class="edge">
<title>9&#45;&gt;8</title>
<path fill="none" stroke="#c0c0c0" stroke-width="2" d="M125.5,-863.8314C125.5,-856.131 125.5,-846.9743 125.5,-838.4166"/>
<polygon fill="#c0c0c0" stroke="#c0c0c0" stroke-width="2" points="129.0001,-838.4132 125.5,-828.4133 122.0001,-838.4133 129.0001,-838.4132"/>
</g>
<!-- 26 -->
<g id="node27" class="node">
<title>26</title>
<path fill="none" stroke="#d88d56" stroke-width="2" d="M296,-828C296,-828 211,-828 211,-828 205,-828 199,-822 199,-816 199,-816 199,-804 199,-804 199,-798 205,-792 211,-792 211,-792 296,-792 296,-792 302,-792 308,-798 308,-804 308,-804 308,-816 308,-816 308,-822 302,-828 296,-828"/>
<text text-anchor="middle" x="253.5" y="-807.5" font-family="sans" font-size="10.00" fill="#000000">atlas_over_regions</text>
</g>
<!-- 9&#45;&gt;26 -->
<g id="edge33" class="edge">
<title>9&#45;&gt;26</title>
<path fill="none" stroke="#c0c0c0" stroke-width="2" d="M157.7998,-863.8314C174.3234,-854.5368 194.6186,-843.1208 212.2607,-833.1971"/>
<polygon fill="#c0c0c0" stroke="#c0c0c0" stroke-width="2" points="214.2107,-836.116 221.2105,-828.1628 210.7788,-830.015 214.2107,-836.116"/>
</g>
<!-- 10 -->
<g id="node11" class="node">
<title>10</title>
<path fill="none" stroke="#56d89a" stroke-width="2" d="M122.5,-972C122.5,-972 82.5,-972 82.5,-972 76.5,-972 70.5,-966 70.5,-960 70.5,-960 70.5,-948 70.5,-948 70.5,-942 76.5,-936 82.5,-936 82.5,-936 122.5,-936 122.5,-936 128.5,-936 134.5,-942 134.5,-948 134.5,-948 134.5,-960 134.5,-960 134.5,-966 128.5,-972 122.5,-972"/>
<text text-anchor="middle" x="102.5" y="-951.5" font-family="sans" font-size="10.00" fill="#000000">slop_tims</text>
</g>
<!-- 10&#45;&gt;2 -->
<g id="edge6" class="edge">
<title>10&#45;&gt;2</title>
<path fill="none" stroke="#c0c0c0" stroke-width="2" d="M88.7158,-935.8103C81.5762,-925.6964 73.1869,-912.6322 67.5,-900 50.458,-862.1447 42.5,-851.5145 42.5,-810 42.5,-810 42.5,-810 42.5,-306 42.5,-265.5282 49.968,-219.2037 55.54,-190.2725"/>
<polygon fill="#c0c0c0" stroke="#c0c0c0" stroke-width="2" points="59.0483,-190.5746 57.5632,-180.0844 52.1823,-189.2111 59.0483,-190.5746"/>
</g>
<!-- 10&#45;&gt;9 -->
<g id="edge14" class="edge">
<title>10&#45;&gt;9</title>
<path fill="none" stroke="#c0c0c0" stroke-width="2" d="M108.3039,-935.8314C110.7908,-928.0463 113.7531,-918.7729 116.5125,-910.1347"/>
<polygon fill="#c0c0c0" stroke="#c0c0c0" stroke-width="2" points="119.909,-911.0041 119.618,-900.4133 113.2409,-908.874 119.909,-911.0041"/>
</g>
<!-- 11 -->
<g id="node12" class="node">
<title>11</title>
<path fill="none" stroke="#d85656" stroke-width="2" d="M137,-1044C137,-1044 68,-1044 68,-1044 62,-1044 56,-1038 56,-1032 56,-1032 56,-1020 56,-1020 56,-1014 62,-1008 68,-1008 68,-1008 137,-1008 137,-1008 143,-1008 149,-1014 149,-1020 149,-1020 149,-1032 149,-1032 149,-1038 143,-1044 137,-1044"/>
<text text-anchor="middle" x="102.5" y="-1023.5" font-family="sans" font-size="10.00" fill="#000000">remove_header</text>
</g>
<!-- 11&#45;&gt;10 -->
<g id="edge15" class="edge">
<title>11&#45;&gt;10</title>
<path fill="none" stroke="#c0c0c0" stroke-width="2" d="M102.5,-1007.8314C102.5,-1000.131 102.5,-990.9743 102.5,-982.4166"/>
<polygon fill="#c0c0c0" stroke="#c0c0c0" stroke-width="2" points="106.0001,-982.4132 102.5,-972.4133 99.0001,-982.4133 106.0001,-982.4132"/>
</g>
<!-- 12 -->
<g id="node13" class="node">
<title>12</title>
<path fill="none" stroke="#566bd8" stroke-width="2" d="M134,-1116C134,-1116 71,-1116 71,-1116 65,-1116 59,-1110 59,-1104 59,-1104 59,-1092 59,-1092 59,-1086 65,-1080 71,-1080 71,-1080 134,-1080 134,-1080 140,-1080 146,-1086 146,-1092 146,-1092 146,-1104 146,-1104 146,-1110 140,-1116 134,-1116"/>
<text text-anchor="middle" x="102.5" y="-1095.5" font-family="sans" font-size="10.00" fill="#000000">generate_tims</text>
</g>
<!-- 12&#45;&gt;11 -->
<g id="edge16" class="edge">
<title>12&#45;&gt;11</title>
<path fill="none" stroke="#c0c0c0" stroke-width="2" d="M102.5,-1079.8314C102.5,-1072.131 102.5,-1062.9743 102.5,-1054.4166"/>
<polygon fill="#c0c0c0" stroke="#c0c0c0" stroke-width="2" points="106.0001,-1054.4132 102.5,-1044.4133 99.0001,-1054.4133 106.0001,-1054.4132"/>
</g>
<!-- 13 -->
<g id="node14" class="node">
<title>13</title>
<path fill="none" stroke="#ced856" stroke-width="2" d="M142,-1188C142,-1188 63,-1188 63,-1188 57,-1188 51,-1182 51,-1176 51,-1176 51,-1164 51,-1164 51,-1158 57,-1152 63,-1152 63,-1152 142,-1152 142,-1152 148,-1152 154,-1158 154,-1164 154,-1164 154,-1176 154,-1176 154,-1182 148,-1188 142,-1188"/>
<text text-anchor="middle" x="102.5" y="-1167.5" font-family="sans" font-size="10.00" fill="#000000">create_final_atlas</text>
</g>
<!-- 13&#45;&gt;2 -->
<g id="edge3" class="edge">
<title>13&#45;&gt;2</title>
<path fill="none" stroke="#c0c0c0" stroke-width="2" d="M79.2754,-1151.7681C50.2954,-1126.78 4.5,-1078.9204 4.5,-1026 4.5,-1026 4.5,-1026 4.5,-306 4.5,-262.7597 26.9945,-217.0187 43.7212,-188.9832"/>
<polygon fill="#c0c0c0" stroke="#c0c0c0" stroke-width="2" points="46.8756,-190.5353 49.1318,-180.1834 40.9126,-186.8688 46.8756,-190.5353"/>
</g>
<!-- 13&#45;&gt;12 -->
<g id="edge17" class="edge">
<title>13&#45;&gt;12</title>
<path fill="none" stroke="#c0c0c0" stroke-width="2" d="M102.5,-1151.8314C102.5,-1144.131 102.5,-1134.9743 102.5,-1126.4166"/>
<polygon fill="#c0c0c0" stroke="#c0c0c0" stroke-width="2" points="106.0001,-1126.4132 102.5,-1116.4133 99.0001,-1126.4133 106.0001,-1126.4132"/>
</g>
<!-- 13&#45;&gt;26 -->
<g id="edge32" class="edge">
<title>13&#45;&gt;26</title>
<path fill="none" stroke="#c0c0c0" stroke-width="2" d="M134.3662,-1151.8474C171.4006,-1128.1071 227.5,-1082.7753 227.5,-1026 227.5,-1026 227.5,-1026 227.5,-954 227.5,-913.2738 237.696,-867.0849 245.318,-838.2458"/>
<polygon fill="#c0c0c0" stroke="#c0c0c0" stroke-width="2" points="248.7356,-839.0164 247.9861,-828.4481 241.9815,-837.1771 248.7356,-839.0164"/>
</g>
<!-- 14 -->
<g id="node15" class="node">
<title>14</title>
<path fill="none" stroke="#d89c56" stroke-width="2" d="M162,-1260C162,-1260 43,-1260 43,-1260 37,-1260 31,-1254 31,-1248 31,-1248 31,-1236 31,-1236 31,-1230 37,-1224 43,-1224 43,-1224 162,-1224 162,-1224 168,-1224 174,-1230 174,-1236 174,-1236 174,-1248 174,-1248 174,-1254 168,-1260 162,-1260"/>
<text text-anchor="middle" x="102.5" y="-1239.5" font-family="sans" font-size="10.00" fill="#000000">create_interim_atlas_files</text>
</g>
<!-- 14&#45;&gt;13 -->
<g id="edge18" class="edge">
<title>14&#45;&gt;13</title>
<path fill="none" stroke="#c0c0c0" stroke-width="2" d="M102.5,-1223.8314C102.5,-1216.131 102.5,-1206.9743 102.5,-1198.4166"/>
<polygon fill="#c0c0c0" stroke="#c0c0c0" stroke-width="2" points="106.0001,-1198.4132 102.5,-1188.4133 99.0001,-1198.4133 106.0001,-1198.4132"/>
</g>
<!-- 15 -->
<g id="node16" class="node">
<title>15</title>
<path fill="none" stroke="#d87556" stroke-width="2" d="M149,-1332C149,-1332 56,-1332 56,-1332 50,-1332 44,-1326 44,-1320 44,-1320 44,-1308 44,-1308 44,-1302 50,-1296 56,-1296 56,-1296 149,-1296 149,-1296 155,-1296 161,-1302 161,-1308 161,-1308 161,-1320 161,-1320 161,-1326 155,-1332 149,-1332"/>
<text text-anchor="middle" x="102.5" y="-1311.5" font-family="sans" font-size="10.00" fill="#000000">unite_atlas_samples</text>
</g>
<!-- 15&#45;&gt;14 -->
<g id="edge19" class="edge">
<title>15&#45;&gt;14</title>
<path fill="none" stroke="#c0c0c0" stroke-width="2" d="M102.5,-1295.8314C102.5,-1288.131 102.5,-1278.9743 102.5,-1270.4166"/>
<polygon fill="#c0c0c0" stroke="#c0c0c0" stroke-width="2" points="106.0001,-1270.4132 102.5,-1260.4133 99.0001,-1270.4133 106.0001,-1270.4132"/>
</g>
<!-- 16 -->
<g id="node17" class="node">
<title>16</title>
<path fill="none" stroke="#afd856" stroke-width="2" d="M193,-1404C193,-1404 12,-1404 12,-1404 6,-1404 0,-1398 0,-1392 0,-1392 0,-1380 0,-1380 0,-1374 6,-1368 12,-1368 12,-1368 193,-1368 193,-1368 199,-1368 205,-1374 205,-1380 205,-1380 205,-1392 205,-1392 205,-1398 199,-1404 193,-1404"/>
<text text-anchor="middle" x="102.5" y="-1383.5" font-family="sans" font-size="10.00" fill="#000000">split_atlas_methylation_and_coverage</text>
</g>
<!-- 16&#45;&gt;15 -->
<g id="edge20" class="edge">
<title>16&#45;&gt;15</title>
<path fill="none" stroke="#c0c0c0" stroke-width="2" d="M102.5,-1367.8314C102.5,-1360.131 102.5,-1350.9743 102.5,-1342.4166"/>
<polygon fill="#c0c0c0" stroke="#c0c0c0" stroke-width="2" points="106.0001,-1342.4132 102.5,-1332.4133 99.0001,-1342.4133 106.0001,-1342.4132"/>
</g>
<!-- 17 -->
<g id="node18" class="node">
<title>17</title>
<path fill="none" stroke="#56a9d8" stroke-width="2" d="M153.5,-1476C153.5,-1476 51.5,-1476 51.5,-1476 45.5,-1476 39.5,-1470 39.5,-1464 39.5,-1464 39.5,-1452 39.5,-1452 39.5,-1446 45.5,-1440 51.5,-1440 51.5,-1440 153.5,-1440 153.5,-1440 159.5,-1440 165.5,-1446 165.5,-1452 165.5,-1452 165.5,-1464 165.5,-1464 165.5,-1470 159.5,-1476 153.5,-1476"/>
<text text-anchor="middle" x="102.5" y="-1455.5" font-family="sans" font-size="10.00" fill="#000000">aggregate_and_merge</text>
</g>
<!-- 17&#45;&gt;16 -->
<g id="edge21" class="edge">
<title>17&#45;&gt;16</title>
<path fill="none" stroke="#c0c0c0" stroke-width="2" d="M102.5,-1439.8314C102.5,-1432.131 102.5,-1422.9743 102.5,-1414.4166"/>
<polygon fill="#c0c0c0" stroke="#c0c0c0" stroke-width="2" points="106.0001,-1414.4132 102.5,-1404.4133 99.0001,-1414.4133 106.0001,-1414.4132"/>
</g>
<!-- 18 -->
<g id="node19" class="node">
<title>18</title>
<path fill="none" stroke="#78d856" stroke-width="2" d="M145.5,-1548C145.5,-1548 59.5,-1548 59.5,-1548 53.5,-1548 47.5,-1542 47.5,-1536 47.5,-1536 47.5,-1524 47.5,-1524 47.5,-1518 53.5,-1512 59.5,-1512 59.5,-1512 145.5,-1512 145.5,-1512 151.5,-1512 157.5,-1518 157.5,-1524 157.5,-1524 157.5,-1536 157.5,-1536 157.5,-1542 151.5,-1548 145.5,-1548"/>
<text text-anchor="middle" x="102.5" y="-1527.5" font-family="sans" font-size="10.00" fill="#000000">merge_sorted_files</text>
</g>
<!-- 18&#45;&gt;17 -->
<g id="edge22" class="edge">
<title>18&#45;&gt;17</title>
<path fill="none" stroke="#c0c0c0" stroke-width="2" d="M102.5,-1511.8314C102.5,-1504.131 102.5,-1494.9743 102.5,-1486.4166"/>
<polygon fill="#c0c0c0" stroke="#c0c0c0" stroke-width="2" points="106.0001,-1486.4132 102.5,-1476.4133 99.0001,-1486.4133 106.0001,-1486.4132"/>
</g>
<!-- 19 -->
<g id="node20" class="node">
<title>19</title>
<path fill="none" stroke="#56d86b" stroke-width="2" d="M163.5,-1620C163.5,-1620 125.5,-1620 125.5,-1620 119.5,-1620 113.5,-1614 113.5,-1608 113.5,-1608 113.5,-1596 113.5,-1596 113.5,-1590 119.5,-1584 125.5,-1584 125.5,-1584 163.5,-1584 163.5,-1584 169.5,-1584 175.5,-1590 175.5,-1596 175.5,-1596 175.5,-1608 175.5,-1608 175.5,-1614 169.5,-1620 163.5,-1620"/>
<text text-anchor="middle" x="144.5" y="-1599.5" font-family="sans" font-size="10.00" fill="#000000">cpg_filter</text>
</g>
<!-- 19&#45;&gt;18 -->
<g id="edge23" class="edge">
<title>19&#45;&gt;18</title>
<path fill="none" stroke="#c0c0c0" stroke-width="2" d="M133.9016,-1583.8314C129.2123,-1575.7925 123.5972,-1566.1666 118.4202,-1557.2918"/>
<polygon fill="#c0c0c0" stroke="#c0c0c0" stroke-width="2" points="121.3031,-1555.2875 113.2411,-1548.4133 115.2566,-1558.8146 121.3031,-1555.2875"/>
</g>
<!-- 20 -->
<g id="node21" class="node">
<title>20</title>
<path fill="none" stroke="#56d8c1" stroke-width="2" d="M199.5,-1692C199.5,-1692 113.5,-1692 113.5,-1692 107.5,-1692 101.5,-1686 101.5,-1680 101.5,-1680 101.5,-1668 101.5,-1668 101.5,-1662 107.5,-1656 113.5,-1656 113.5,-1656 199.5,-1656 199.5,-1656 205.5,-1656 211.5,-1662 211.5,-1668 211.5,-1668 211.5,-1680 211.5,-1680 211.5,-1686 205.5,-1692 199.5,-1692"/>
<text text-anchor="middle" x="156.5" y="-1671.5" font-family="sans" font-size="10.00" fill="#000000">shift_minus_strand</text>
</g>
<!-- 20&#45;&gt;19 -->
<g id="edge25" class="edge">
<title>20&#45;&gt;19</title>
<path fill="none" stroke="#c0c0c0" stroke-width="2" d="M153.4719,-1655.8314C152.1885,-1648.131 150.6624,-1638.9743 149.2361,-1630.4166"/>
<polygon fill="#c0c0c0" stroke="#c0c0c0" stroke-width="2" points="152.6653,-1629.7018 147.5689,-1620.4133 145.7606,-1630.8526 152.6653,-1629.7018"/>
</g>
<!-- 21 -->
<g id="node22" class="node">
<title>21</title>
<path fill="none" stroke="#568ad8" stroke-width="2" d="M153,-1764C153,-1764 76,-1764 76,-1764 70,-1764 64,-1758 64,-1752 64,-1752 64,-1740 64,-1740 64,-1734 70,-1728 76,-1728 76,-1728 153,-1728 153,-1728 159,-1728 165,-1734 165,-1740 165,-1740 165,-1752 165,-1752 165,-1758 159,-1764 153,-1764"/>
<text text-anchor="middle" x="114.5" y="-1743.5" font-family="sans" font-size="10.00" fill="#000000">separate_strands</text>
</g>
<!-- 21&#45;&gt;18 -->
<g id="edge24" class="edge">
<title>21&#45;&gt;18</title>
<path fill="none" stroke="#c0c0c0" stroke-width="2" d="M104.9092,-1727.5602C100.1501,-1717.373 94.9131,-1704.3186 92.5,-1692 83.4479,-1645.7893 90.4748,-1590.8788 96.4461,-1558.3173"/>
<polygon fill="#c0c0c0" stroke="#c0c0c0" stroke-width="2" points="99.9448,-1558.6588 98.4059,-1548.1763 93.0719,-1557.3305 99.9448,-1558.6588"/>
</g>
<!-- 21&#45;&gt;20 -->
<g id="edge26" class="edge">
<title>21&#45;&gt;20</title>
<path fill="none" stroke="#c0c0c0" stroke-width="2" d="M125.0984,-1727.8314C129.7877,-1719.7925 135.4028,-1710.1666 140.5798,-1701.2918"/>
<polygon fill="#c0c0c0" stroke="#c0c0c0" stroke-width="2" points="143.7434,-1702.8146 145.7589,-1692.4133 137.6969,-1699.2875 143.7434,-1702.8146"/>
</g>
<!-- 22 -->
<g id="node23" class="node">
<title>22</title>
<path fill="none" stroke="#56d8a9" stroke-width="2" d="M159,-1836C159,-1836 70,-1836 70,-1836 64,-1836 58,-1830 58,-1824 58,-1824 58,-1812 58,-1812 58,-1806 64,-1800 70,-1800 70,-1800 159,-1800 159,-1800 165,-1800 171,-1806 171,-1812 171,-1812 171,-1824 171,-1824 171,-1830 165,-1836 159,-1836"/>
<text text-anchor="middle" x="114.5" y="-1815.5" font-family="sans" font-size="10.00" fill="#000000">format_merged_file</text>
</g>
<!-- 22&#45;&gt;21 -->
<g id="edge27" class="edge">
<title>22&#45;&gt;21</title>
<path fill="none" stroke="#c0c0c0" stroke-width="2" d="M114.5,-1799.8314C114.5,-1792.131 114.5,-1782.9743 114.5,-1774.4166"/>
<polygon fill="#c0c0c0" stroke="#c0c0c0" stroke-width="2" points="118.0001,-1774.4132 114.5,-1764.4133 111.0001,-1774.4133 118.0001,-1774.4132"/>
</g>
<!-- 23 -->
<g id="node24" class="node">
<title>23</title>
<path fill="none" stroke="#56c1d8" stroke-width="2" d="M167.5,-1908C167.5,-1908 61.5,-1908 61.5,-1908 55.5,-1908 49.5,-1902 49.5,-1896 49.5,-1896 49.5,-1884 49.5,-1884 49.5,-1878 55.5,-1872 61.5,-1872 61.5,-1872 167.5,-1872 167.5,-1872 173.5,-1872 179.5,-1878 179.5,-1884 179.5,-1884 179.5,-1896 179.5,-1896 179.5,-1902 173.5,-1908 167.5,-1908"/>
<text text-anchor="middle" x="114.5" y="-1887.5" font-family="sans" font-size="10.00" fill="#000000">filter_excluded_regions</text>
</g>
<!-- 23&#45;&gt;22 -->
<g id="edge28" class="edge">
<title>23&#45;&gt;22</title>
<path fill="none" stroke="#c0c0c0" stroke-width="2" d="M114.5,-1871.8314C114.5,-1864.131 114.5,-1854.9743 114.5,-1846.4166"/>
<polygon fill="#c0c0c0" stroke="#c0c0c0" stroke-width="2" points="118.0001,-1846.4132 114.5,-1836.4133 111.0001,-1846.4133 118.0001,-1846.4132"/>
</g>
<!-- 24 -->
<g id="node25" class="node">
<title>24</title>
<path fill="none" stroke="#bed856" stroke-width="2" d="M163,-1980C163,-1980 66,-1980 66,-1980 60,-1980 54,-1974 54,-1968 54,-1968 54,-1956 54,-1956 54,-1950 60,-1944 66,-1944 66,-1944 163,-1944 163,-1944 169,-1944 175,-1950 175,-1956 175,-1956 175,-1968 175,-1968 175,-1974 169,-1980 163,-1980"/>
<text text-anchor="middle" x="114.5" y="-1959.5" font-family="sans" font-size="10.00" fill="#000000">merge_and_sort_files</text>
</g>
<!-- 24&#45;&gt;23 -->
<g id="edge29" class="edge">
<title>24&#45;&gt;23</title>
<path fill="none" stroke="#c0c0c0" stroke-width="2" d="M114.5,-1943.8314C114.5,-1936.131 114.5,-1926.9743 114.5,-1918.4166"/>
<polygon fill="#c0c0c0" stroke="#c0c0c0" stroke-width="2" points="118.0001,-1918.4132 114.5,-1908.4133 111.0001,-1918.4133 118.0001,-1918.4132"/>
</g>
<!-- 25 -->
<g id="node26" class="node">
<title>25</title>
<path fill="none" stroke="#d8bc56" stroke-width="2" d="M212,-540C212,-540 143,-540 143,-540 137,-540 131,-534 131,-528 131,-528 131,-516 131,-516 131,-510 137,-504 143,-504 143,-504 212,-504 212,-504 218,-504 224,-510 224,-516 224,-516 224,-528 224,-528 224,-534 218,-540 212,-540"/>
<text text-anchor="middle" x="177.5" y="-519.5" font-family="sans" font-size="10.00" fill="#000000">calculate_reads</text>
</g>
<!-- 25&#45;&gt;5 -->
<g id="edge10" class="edge">
<title>25&#45;&gt;5</title>
<path fill="none" stroke="#c0c0c0" stroke-width="2" d="M168.1633,-503.8314C164.0757,-495.8771 159.1896,-486.369 154.6691,-477.5723"/>
<polygon fill="#c0c0c0" stroke="#c0c0c0" stroke-width="2" points="157.6461,-475.7078 149.9624,-468.4133 151.4201,-478.9074 157.6461,-475.7078"/>
</g>
<!-- 26&#45;&gt;25 -->
<g id="edge30" class="edge">
<title>26&#45;&gt;25</title>
<path fill="none" stroke="#c0c0c0" stroke-width="2" d="M256.2257,-791.8609C261.5038,-750.9864 269.7162,-649.5181 234.5,-576 229.2621,-565.0652 220.7831,-555.2101 211.9475,-547.0046"/>
<polygon fill="#c0c0c0" stroke="#c0c0c0" stroke-width="2" points="214.0053,-544.1557 204.1636,-540.2325 209.4107,-549.4368 214.0053,-544.1557"/>
</g>
<!-- 27&#45;&gt;25 -->
<g id="edge31" class="edge">
<title>27&#45;&gt;25</title>
<path fill="none" stroke="#c0c0c0" stroke-width="2" d="M177.5,-575.8314C177.5,-568.131 177.5,-558.9743 177.5,-550.4166"/>
<polygon fill="#c0c0c0" stroke="#c0c0c0" stroke-width="2" points="181.0001,-550.4132 177.5,-540.4133 174.0001,-550.4133 181.0001,-550.4132"/>
</g>
<!-- 28&#45;&gt;2 -->
<g id="edge4" class="edge">
<title>28&#45;&gt;2</title>
<path fill="none" stroke="#c0c0c0" stroke-width="2" d="M126.5462,-215.8314C115.8305,-206.9632 102.7811,-196.1637 91.191,-186.5718"/>
<polygon fill="#c0c0c0" stroke="#c0c0c0" stroke-width="2" points="93.3822,-183.8422 83.4467,-180.1628 88.9192,-189.2349 93.3822,-183.8422"/>
</g>
</g>
</svg>
