<?xml version="1.0" encoding="UTF-8" standalone="no"?>
<!DOCTYPE svg PUBLIC "-//W3C//DTD SVG 1.1//EN"
 "http://www.w3.org/Graphics/SVG/1.1/DTD/svg11.dtd">
<!-- Generated by graphviz version 2.40.1 (20161225.0304)
 -->
<!-- Title: snakemake_dag Pages: 1 -->
<svg width="284pt" height="908pt"
 viewBox="0.00 0.00 284.00 908.00" xmlns="http://www.w3.org/2000/svg" xmlns:xlink="http://www.w3.org/1999/xlink">
<g id="graph0" class="graph" transform="scale(1 1) rotate(0) translate(4 904)">
<title>snakemake_dag</title>
<polygon fill="#ffffff" stroke="transparent" points="-4,4 -4,-904 280,-904 280,4 -4,4"/>
<!-- 0 -->
<g id="node1" class="node">
<title>0</title>
<path fill="none" stroke="#56d86b" stroke-width="2" d="M122.5,-36C122.5,-36 92.5,-36 92.5,-36 86.5,-36 80.5,-30 80.5,-24 80.5,-24 80.5,-12 80.5,-12 80.5,-6 86.5,0 92.5,0 92.5,0 122.5,0 122.5,0 128.5,0 134.5,-6 134.5,-12 134.5,-12 134.5,-24 134.5,-24 134.5,-30 128.5,-36 122.5,-36"/>
<text text-anchor="middle" x="107.5" y="-15.5" font-family="sans" font-size="10.00" fill="#000000">all</text>
</g>
<!-- 1 -->
<g id="node2" class="node">
<title>1</title>
<path fill="none" stroke="#d86656" stroke-width="2" d="M134.5,-108C134.5,-108 80.5,-108 80.5,-108 74.5,-108 68.5,-102 68.5,-96 68.5,-96 68.5,-84 68.5,-84 68.5,-78 74.5,-72 80.5,-72 80.5,-72 134.5,-72 134.5,-72 140.5,-72 146.5,-78 146.5,-84 146.5,-84 146.5,-96 146.5,-96 146.5,-102 140.5,-108 134.5,-108"/>
<text text-anchor="middle" x="107.5" y="-87.5" font-family="sans" font-size="10.00" fill="#000000">write_output</text>
</g>
<!-- 1&#45;&gt;0 -->
<g id="edge1" class="edge">
<title>1&#45;&gt;0</title>
<path fill="none" stroke="#c0c0c0" stroke-width="2" d="M107.5,-71.8314C107.5,-64.131 107.5,-54.9743 107.5,-46.4166"/>
<polygon fill="#c0c0c0" stroke="#c0c0c0" stroke-width="2" points="111.0001,-46.4132 107.5,-36.4133 104.0001,-46.4133 111.0001,-46.4132"/>
</g>
<!-- 2 -->
<g id="node3" class="node">
<title>2</title>
<path fill="none" stroke="#56d88a" stroke-width="2" d="M129.5,-180C129.5,-180 85.5,-180 85.5,-180 79.5,-180 73.5,-174 73.5,-168 73.5,-168 73.5,-156 73.5,-156 73.5,-150 79.5,-144 85.5,-144 85.5,-144 129.5,-144 129.5,-144 135.5,-144 141.5,-150 141.5,-156 141.5,-156 141.5,-168 141.5,-168 141.5,-174 135.5,-180 129.5,-180"/>
<text text-anchor="middle" x="107.5" y="-159.5" font-family="sans" font-size="10.00" fill="#000000">run_model</text>
</g>
<!-- 2&#45;&gt;1 -->
<g id="edge2" class="edge">
<title>2&#45;&gt;1</title>
<path fill="none" stroke="#c0c0c0" stroke-width="2" d="M107.5,-143.8314C107.5,-136.131 107.5,-126.9743 107.5,-118.4166"/>
<polygon fill="#c0c0c0" stroke="#c0c0c0" stroke-width="2" points="111.0001,-118.4132 107.5,-108.4133 104.0001,-118.4133 111.0001,-118.4132"/>
</g>
<!-- 3 -->
<g id="node4" class="node">
<title>3</title>
<path fill="none" stroke="#568ad8" stroke-width="2" d="M129.5,-324C129.5,-324 85.5,-324 85.5,-324 79.5,-324 73.5,-318 73.5,-312 73.5,-312 73.5,-300 73.5,-300 73.5,-294 79.5,-288 85.5,-288 85.5,-288 129.5,-288 129.5,-288 135.5,-288 141.5,-294 141.5,-300 141.5,-300 141.5,-312 141.5,-312 141.5,-318 135.5,-324 129.5,-324"/>
<text text-anchor="middle" x="107.5" y="-303.5" font-family="sans" font-size="10.00" fill="#000000">zip_output</text>
</g>
<!-- 3&#45;&gt;2 -->
<g id="edge3" class="edge">
<title>3&#45;&gt;2</title>
<path fill="none" stroke="#c0c0c0" stroke-width="2" d="M101.1052,-287.7647C97.8154,-277.4187 94.1558,-264.1474 92.5,-252 90.339,-236.1466 90.339,-231.8534 92.5,-216 93.6772,-207.3639 95.8671,-198.1599 98.217,-189.8427"/>
<polygon fill="#c0c0c0" stroke="#c0c0c0" stroke-width="2" points="101.578,-190.8195 101.1052,-180.2353 94.8743,-188.8042 101.578,-190.8195"/>
</g>
<!-- 13 -->
<g id="node14" class="node">
<title>13</title>
<path fill="none" stroke="#59d856" stroke-width="2" d="M169.5,-252C169.5,-252 113.5,-252 113.5,-252 107.5,-252 101.5,-246 101.5,-240 101.5,-240 101.5,-228 101.5,-228 101.5,-222 107.5,-216 113.5,-216 113.5,-216 169.5,-216 169.5,-216 175.5,-216 181.5,-222 181.5,-228 181.5,-228 181.5,-240 181.5,-240 181.5,-246 175.5,-252 169.5,-252"/>
<text text-anchor="middle" x="141.5" y="-231.5" font-family="sans" font-size="10.00" fill="#000000">index_output</text>
</g>
<!-- 3&#45;&gt;13 -->
<g id="edge16" class="edge">
<title>3&#45;&gt;13</title>
<path fill="none" stroke="#c0c0c0" stroke-width="2" d="M116.0796,-287.8314C119.8358,-279.8771 124.3257,-270.369 128.4798,-261.5723"/>
<polygon fill="#c0c0c0" stroke="#c0c0c0" stroke-width="2" points="131.6996,-262.9503 132.8048,-252.4133 125.3699,-259.9612 131.6996,-262.9503"/>
</g>
<!-- 4 -->
<g id="node5" class="node">
<title>4</title>
<path fill="none" stroke="#d87556" stroke-width="2" d="M139.5,-396C139.5,-396 75.5,-396 75.5,-396 69.5,-396 63.5,-390 63.5,-384 63.5,-384 63.5,-372 63.5,-372 63.5,-366 69.5,-360 75.5,-360 75.5,-360 139.5,-360 139.5,-360 145.5,-360 151.5,-366 151.5,-372 151.5,-372 151.5,-384 151.5,-384 151.5,-390 145.5,-396 139.5,-396"/>
<text text-anchor="middle" x="107.5" y="-375.5" font-family="sans" font-size="10.00" fill="#000000">make_mixture</text>
</g>
<!-- 4&#45;&gt;3 -->
<g id="edge5" class="edge">
<title>4&#45;&gt;3</title>
<path fill="none" stroke="#c0c0c0" stroke-width="2" d="M107.5,-359.8314C107.5,-352.131 107.5,-342.9743 107.5,-334.4166"/>
<polygon fill="#c0c0c0" stroke="#c0c0c0" stroke-width="2" points="111.0001,-334.4132 107.5,-324.4133 104.0001,-334.4133 111.0001,-334.4132"/>
</g>
<!-- 5 -->
<g id="node6" class="node">
<title>5</title>
<path fill="none" stroke="#56d8d0" stroke-width="2" d="M157,-468C157,-468 58,-468 58,-468 52,-468 46,-462 46,-456 46,-456 46,-444 46,-444 46,-438 52,-432 58,-432 58,-432 157,-432 157,-432 163,-432 169,-438 169,-444 169,-444 169,-456 169,-456 169,-462 163,-468 157,-468"/>
<text text-anchor="middle" x="107.5" y="-447.5" font-family="sans" font-size="10.00" fill="#000000">sample_from_epiread</text>
</g>
<!-- 5&#45;&gt;4 -->
<g id="edge6" class="edge">
<title>5&#45;&gt;4</title>
<path fill="none" stroke="#c0c0c0" stroke-width="2" d="M107.5,-431.8314C107.5,-424.131 107.5,-414.9743 107.5,-406.4166"/>
<polygon fill="#c0c0c0" stroke="#c0c0c0" stroke-width="2" points="111.0001,-406.4132 107.5,-396.4133 104.0001,-406.4133 111.0001,-406.4132"/>
</g>
<!-- 6 -->
<g id="node7" class="node">
<title>6</title>
<path fill="none" stroke="#d8bc56" stroke-width="2" d="M107,-684C107,-684 42,-684 42,-684 36,-684 30,-678 30,-672 30,-672 30,-660 30,-660 30,-654 36,-648 42,-648 42,-648 107,-648 107,-648 113,-648 119,-654 119,-660 119,-660 119,-672 119,-672 119,-678 113,-684 107,-684"/>
<text text-anchor="middle" x="74.5" y="-663.5" font-family="sans" font-size="10.00" fill="#000000">merge_bioreps</text>
</g>
<!-- 6&#45;&gt;5 -->
<g id="edge8" class="edge">
<title>6&#45;&gt;5</title>
<path fill="none" stroke="#c0c0c0" stroke-width="2" d="M74.8288,-647.8191C75.6756,-617.6359 78.7004,-555.4143 89.5,-504 91.3197,-495.3368 94.0698,-486.1246 96.8765,-477.8083"/>
<polygon fill="#c0c0c0" stroke="#c0c0c0" stroke-width="2" points="100.2379,-478.8006 100.2692,-468.2058 93.6377,-476.4686 100.2379,-478.8006"/>
</g>
<!-- 12 -->
<g id="node13" class="node">
<title>12</title>
<path fill="none" stroke="#d88d56" stroke-width="2" d="M181,-612C181,-612 110,-612 110,-612 104,-612 98,-606 98,-600 98,-600 98,-588 98,-588 98,-582 104,-576 110,-576 110,-576 181,-576 181,-576 187,-576 193,-582 193,-588 193,-588 193,-600 193,-600 193,-606 187,-612 181,-612"/>
<text text-anchor="middle" x="145.5" y="-591.5" font-family="sans" font-size="10.00" fill="#000000">measure_length</text>
</g>
<!-- 6&#45;&gt;12 -->
<g id="edge15" class="edge">
<title>6&#45;&gt;12</title>
<path fill="none" stroke="#c0c0c0" stroke-width="2" d="M92.4163,-647.8314C100.8442,-639.2848 111.041,-628.9443 120.236,-619.6198"/>
<polygon fill="#c0c0c0" stroke="#c0c0c0" stroke-width="2" points="122.8131,-621.9912 127.3425,-612.4133 117.8289,-617.0761 122.8131,-621.9912"/>
</g>
<!-- 7 -->
<g id="node8" class="node">
<title>7</title>
<path fill="none" stroke="#56c1d8" stroke-width="2" d="M137,-756C137,-756 12,-756 12,-756 6,-756 0,-750 0,-744 0,-744 0,-732 0,-732 0,-726 6,-720 12,-720 12,-720 137,-720 137,-720 143,-720 149,-726 149,-732 149,-732 149,-744 149,-744 149,-750 143,-756 137,-756"/>
<text text-anchor="middle" x="74.5" y="-735.5" font-family="sans" font-size="10.00" fill="#000000">cut_regions_from_epireads</text>
</g>
<!-- 7&#45;&gt;6 -->
<g id="edge9" class="edge">
<title>7&#45;&gt;6</title>
<path fill="none" stroke="#c0c0c0" stroke-width="2" d="M74.5,-719.8314C74.5,-712.131 74.5,-702.9743 74.5,-694.4166"/>
<polygon fill="#c0c0c0" stroke="#c0c0c0" stroke-width="2" points="78.0001,-694.4132 74.5,-684.4133 71.0001,-694.4133 78.0001,-694.4132"/>
</g>
<!-- 8 -->
<g id="node9" class="node">
<title>8</title>
<path fill="none" stroke="#567bd8" stroke-width="2" d="M149.5,-828C149.5,-828 63.5,-828 63.5,-828 57.5,-828 51.5,-822 51.5,-816 51.5,-816 51.5,-804 51.5,-804 51.5,-798 57.5,-792 63.5,-792 63.5,-792 149.5,-792 149.5,-792 155.5,-792 161.5,-798 161.5,-804 161.5,-804 161.5,-816 161.5,-816 161.5,-822 155.5,-828 149.5,-828"/>
<text text-anchor="middle" x="106.5" y="-807.5" font-family="sans" font-size="10.00" fill="#000000">merge_regions_file</text>
</g>
<!-- 8&#45;&gt;7 -->
<g id="edge10" class="edge">
<title>8&#45;&gt;7</title>
<path fill="none" stroke="#c0c0c0" stroke-width="2" d="M98.425,-791.8314C94.8898,-783.8771 90.664,-774.369 86.7544,-765.5723"/>
<polygon fill="#c0c0c0" stroke="#c0c0c0" stroke-width="2" points="89.9435,-764.1299 82.6837,-756.4133 83.5468,-766.9729 89.9435,-764.1299"/>
</g>
<!-- 9 -->
<g id="node10" class="node">
<title>9</title>
<path fill="none" stroke="#56d8a9" stroke-width="2" d="M184,-900C184,-900 111,-900 111,-900 105,-900 99,-894 99,-888 99,-888 99,-876 99,-876 99,-870 105,-864 111,-864 111,-864 184,-864 184,-864 190,-864 196,-870 196,-876 196,-876 196,-888 196,-888 196,-894 190,-900 184,-900"/>
<text text-anchor="middle" x="147.5" y="-879.5" font-family="sans" font-size="10.00" fill="#000000">sort_regions_file</text>
</g>
<!-- 9&#45;&gt;8 -->
<g id="edge11" class="edge">
<title>9&#45;&gt;8</title>
<path fill="none" stroke="#c0c0c0" stroke-width="2" d="M137.154,-863.8314C132.5763,-855.7925 127.0948,-846.1666 122.0412,-837.2918"/>
<polygon fill="#c0c0c0" stroke="#c0c0c0" stroke-width="2" points="124.9752,-835.3712 116.9853,-828.4133 118.8923,-838.8351 124.9752,-835.3712"/>
</g>
<!-- 11 -->
<g id="node12" class="node">
<title>11</title>
<path fill="none" stroke="#78d856" stroke-width="2" d="M264,-756C264,-756 179,-756 179,-756 173,-756 167,-750 167,-744 167,-744 167,-732 167,-732 167,-726 173,-720 179,-720 179,-720 264,-720 264,-720 270,-720 276,-726 276,-732 276,-732 276,-744 276,-744 276,-750 270,-756 264,-756"/>
<text text-anchor="middle" x="221.5" y="-735.5" font-family="sans" font-size="10.00" fill="#000000">atlas_over_regions</text>
</g>
<!-- 9&#45;&gt;11 -->
<g id="edge14" class="edge">
<title>9&#45;&gt;11</title>
<path fill="none" stroke="#c0c0c0" stroke-width="2" d="M156.8722,-863.7623C169.6607,-838.8764 192.68,-794.0822 207.5138,-765.2165"/>
<polygon fill="#c0c0c0" stroke="#c0c0c0" stroke-width="2" points="210.7462,-766.5837 212.2039,-756.0896 204.5202,-763.3842 210.7462,-766.5837"/>
</g>
<!-- 10 -->
<g id="node11" class="node">
<title>10</title>
<path fill="none" stroke="#88d856" stroke-width="2" d="M180,-540C180,-540 111,-540 111,-540 105,-540 99,-534 99,-528 99,-528 99,-516 99,-516 99,-510 105,-504 111,-504 111,-504 180,-504 180,-504 186,-504 192,-510 192,-516 192,-516 192,-528 192,-528 192,-534 186,-540 180,-540"/>
<text text-anchor="middle" x="145.5" y="-519.5" font-family="sans" font-size="10.00" fill="#000000">calculate_reads</text>
</g>
<!-- 10&#45;&gt;5 -->
<g id="edge7" class="edge">
<title>10&#45;&gt;5</title>
<path fill="none" stroke="#c0c0c0" stroke-width="2" d="M135.911,-503.8314C131.6683,-495.7925 126.5879,-486.1666 121.904,-477.2918"/>
<polygon fill="#c0c0c0" stroke="#c0c0c0" stroke-width="2" points="124.9811,-475.6235 117.2181,-468.4133 118.7904,-478.8908 124.9811,-475.6235"/>
</g>
<!-- 11&#45;&gt;10 -->
<g id="edge13" class="edge">
<title>11&#45;&gt;10</title>
<path fill="none" stroke="#c0c0c0" stroke-width="2" d="M223.2394,-719.8561C225.4188,-688.6523 226.3531,-623.5947 202.5,-576 196.965,-564.9558 188.2056,-554.9638 179.1984,-546.663"/>
<polygon fill="#c0c0c0" stroke="#c0c0c0" stroke-width="2" points="181.4858,-544.0138 171.6394,-540.1022 176.8973,-549.3003 181.4858,-544.0138"/>
</g>
<!-- 12&#45;&gt;10 -->
<g id="edge12" class="edge">
<title>12&#45;&gt;10</title>
<path fill="none" stroke="#c0c0c0" stroke-width="2" d="M145.5,-575.8314C145.5,-568.131 145.5,-558.9743 145.5,-550.4166"/>
<polygon fill="#c0c0c0" stroke="#c0c0c0" stroke-width="2" points="149.0001,-550.4132 145.5,-540.4133 142.0001,-550.4133 149.0001,-550.4132"/>
</g>
<!-- 13&#45;&gt;2 -->
<g id="edge4" class="edge">
<title>13&#45;&gt;2</title>
<path fill="none" stroke="#c0c0c0" stroke-width="2" d="M132.9204,-215.8314C129.1642,-207.8771 124.6743,-198.369 120.5202,-189.5723"/>
<polygon fill="#c0c0c0" stroke="#c0c0c0" stroke-width="2" points="123.6301,-187.9612 116.1952,-180.4133 117.3004,-190.9503 123.6301,-187.9612"/>
</g>
</g>
</svg>
