<?xml version="1.0" encoding="UTF-8" standalone="no"?>
<!DOCTYPE svg PUBLIC "-//W3C//DTD SVG 1.1//EN"
 "http://www.w3.org/Graphics/SVG/1.1/DTD/svg11.dtd">
<!-- Generated by graphviz version 2.40.1 (20161225.0304)
 -->
<!-- Title: snakemake_dag Pages: 1 -->
<svg width="553pt" height="1556pt"
 viewBox="0.00 0.00 552.50 1556.00" xmlns="http://www.w3.org/2000/svg" xmlns:xlink="http://www.w3.org/1999/xlink">
<g id="graph0" class="graph" transform="scale(1 1) rotate(0) translate(4 1552)">
<title>snakemake_dag</title>
<polygon fill="#ffffff" stroke="transparent" points="-4,4 -4,-1552 548.5,-1552 548.5,4 -4,4"/>
<!-- 0 -->
<g id="node1" class="node">
<title>0</title>
<path fill="none" stroke="#56d0d8" stroke-width="2" d="M483.5,-108C483.5,-108 453.5,-108 453.5,-108 447.5,-108 441.5,-102 441.5,-96 441.5,-96 441.5,-84 441.5,-84 441.5,-78 447.5,-72 453.5,-72 453.5,-72 483.5,-72 483.5,-72 489.5,-72 495.5,-78 495.5,-84 495.5,-84 495.5,-96 495.5,-96 495.5,-102 489.5,-108 483.5,-108"/>
<text text-anchor="middle" x="468.5" y="-87.5" font-family="sans" font-size="10.00" fill="#000000">all</text>
</g>
<!-- 1 -->
<g id="node2" class="node">
<title>1</title>
<path fill="none" stroke="#9fd856" stroke-width="2" d="M495.5,-180C495.5,-180 441.5,-180 441.5,-180 435.5,-180 429.5,-174 429.5,-168 429.5,-168 429.5,-156 429.5,-156 429.5,-150 435.5,-144 441.5,-144 441.5,-144 495.5,-144 495.5,-144 501.5,-144 507.5,-150 507.5,-156 507.5,-156 507.5,-168 507.5,-168 507.5,-174 501.5,-180 495.5,-180"/>
<text text-anchor="middle" x="468.5" y="-159.5" font-family="sans" font-size="10.00" fill="#000000">write_output</text>
</g>
<!-- 1&#45;&gt;0 -->
<g id="edge1" class="edge">
<title>1&#45;&gt;0</title>
<path fill="none" stroke="#c0c0c0" stroke-width="2" d="M468.5,-143.8314C468.5,-136.131 468.5,-126.9743 468.5,-118.4166"/>
<polygon fill="#c0c0c0" stroke="#c0c0c0" stroke-width="2" points="472.0001,-118.4132 468.5,-108.4133 465.0001,-118.4133 472.0001,-118.4132"/>
</g>
<!-- 2 -->
<g id="node3" class="node">
<title>2</title>
<path fill="none" stroke="#d85656" stroke-width="2" d="M490.5,-252C490.5,-252 446.5,-252 446.5,-252 440.5,-252 434.5,-246 434.5,-240 434.5,-240 434.5,-228 434.5,-228 434.5,-222 440.5,-216 446.5,-216 446.5,-216 490.5,-216 490.5,-216 496.5,-216 502.5,-222 502.5,-228 502.5,-228 502.5,-240 502.5,-240 502.5,-246 496.5,-252 490.5,-252"/>
<text text-anchor="middle" x="468.5" y="-231.5" font-family="sans" font-size="10.00" fill="#000000">run_model</text>
</g>
<!-- 2&#45;&gt;1 -->
<g id="edge2" class="edge">
<title>2&#45;&gt;1</title>
<path fill="none" stroke="#c0c0c0" stroke-width="2" d="M468.5,-215.8314C468.5,-208.131 468.5,-198.9743 468.5,-190.4166"/>
<polygon fill="#c0c0c0" stroke="#c0c0c0" stroke-width="2" points="472.0001,-190.4132 468.5,-180.4133 465.0001,-190.4133 472.0001,-190.4132"/>
</g>
<!-- 3 -->
<g id="node4" class="node">
<title>3</title>
<path fill="none" stroke="#d87556" stroke-width="2" d="M460.5,-1260C460.5,-1260 416.5,-1260 416.5,-1260 410.5,-1260 404.5,-1254 404.5,-1248 404.5,-1248 404.5,-1236 404.5,-1236 404.5,-1230 410.5,-1224 416.5,-1224 416.5,-1224 460.5,-1224 460.5,-1224 466.5,-1224 472.5,-1230 472.5,-1236 472.5,-1236 472.5,-1248 472.5,-1248 472.5,-1254 466.5,-1260 460.5,-1260"/>
<text text-anchor="middle" x="438.5" y="-1239.5" font-family="sans" font-size="10.00" fill="#000000">zip_output</text>
</g>
<!-- 3&#45;&gt;2 -->
<g id="edge3" class="edge">
<title>3&#45;&gt;2</title>
<path fill="none" stroke="#c0c0c0" stroke-width="2" d="M459.4405,-1223.925C469.3879,-1214.2376 480.5866,-1201.5269 487.5,-1188 506.1049,-1151.5971 506.5,-1138.8816 506.5,-1098 506.5,-1098 506.5,-1098 506.5,-378 506.5,-336.3681 491.4672,-290.14 480.3119,-261.567"/>
<polygon fill="#c0c0c0" stroke="#c0c0c0" stroke-width="2" points="483.5368,-260.2055 476.5588,-252.2332 477.0422,-262.817 483.5368,-260.2055"/>
</g>
<!-- 23 -->
<g id="node24" class="node">
<title>23</title>
<path fill="none" stroke="#56d8d0" stroke-width="2" d="M420,-1116C420,-1116 325,-1116 325,-1116 319,-1116 313,-1110 313,-1104 313,-1104 313,-1092 313,-1092 313,-1086 319,-1080 325,-1080 325,-1080 420,-1080 420,-1080 426,-1080 432,-1086 432,-1092 432,-1092 432,-1104 432,-1104 432,-1110 426,-1116 420,-1116"/>
<text text-anchor="middle" x="372.5" y="-1095.5" font-family="sans" font-size="10.00" fill="#000000">epiread_to_bedgraph</text>
</g>
<!-- 3&#45;&gt;23 -->
<g id="edge30" class="edge">
<title>3&#45;&gt;23</title>
<path fill="none" stroke="#c0c0c0" stroke-width="2" d="M417.4368,-1223.9869C407.4581,-1214.3152 396.2685,-1201.6 389.5,-1188 379.9056,-1168.7217 375.7047,-1144.6546 373.876,-1126.2599"/>
<polygon fill="#c0c0c0" stroke="#c0c0c0" stroke-width="2" points="377.3539,-1125.8454 373.0505,-1116.1639 370.3772,-1126.4159 377.3539,-1125.8454"/>
</g>
<!-- 24 -->
<g id="node25" class="node">
<title>24</title>
<path fill="none" stroke="#566bd8" stroke-width="2" d="M466.5,-1188C466.5,-1188 410.5,-1188 410.5,-1188 404.5,-1188 398.5,-1182 398.5,-1176 398.5,-1176 398.5,-1164 398.5,-1164 398.5,-1158 404.5,-1152 410.5,-1152 410.5,-1152 466.5,-1152 466.5,-1152 472.5,-1152 478.5,-1158 478.5,-1164 478.5,-1164 478.5,-1176 478.5,-1176 478.5,-1182 472.5,-1188 466.5,-1188"/>
<text text-anchor="middle" x="438.5" y="-1167.5" font-family="sans" font-size="10.00" fill="#000000">index_output</text>
</g>
<!-- 3&#45;&gt;24 -->
<g id="edge32" class="edge">
<title>3&#45;&gt;24</title>
<path fill="none" stroke="#c0c0c0" stroke-width="2" d="M438.5,-1223.8314C438.5,-1216.131 438.5,-1206.9743 438.5,-1198.4166"/>
<polygon fill="#c0c0c0" stroke="#c0c0c0" stroke-width="2" points="442.0001,-1198.4132 438.5,-1188.4133 435.0001,-1198.4133 442.0001,-1198.4132"/>
</g>
<!-- 4 -->
<g id="node5" class="node">
<title>4</title>
<path fill="none" stroke="#d8d356" stroke-width="2" d="M407.5,-36C407.5,-36 343.5,-36 343.5,-36 337.5,-36 331.5,-30 331.5,-24 331.5,-24 331.5,-12 331.5,-12 331.5,-6 337.5,0 343.5,0 343.5,0 407.5,0 407.5,0 413.5,0 419.5,-6 419.5,-12 419.5,-12 419.5,-24 419.5,-24 419.5,-30 413.5,-36 407.5,-36"/>
<text text-anchor="middle" x="375.5" y="-15.5" font-family="sans" font-size="10.00" fill="#000000">make_mixture</text>
</g>
<!-- 4&#45;&gt;3 -->
<g id="edge7" class="edge">
<title>4&#45;&gt;3</title>
<path fill="none" stroke="#c0c0c0" stroke-width="2" d="M419.6244,-27.6006C446.9917,-35.5184 481.246,-49.2471 504.5,-72 535.7872,-102.613 544.5,-118.2273 544.5,-162 544.5,-1098 544.5,-1098 544.5,-1098 544.5,-1140.9182 535.3274,-1153.7229 509.5,-1188 500.8759,-1199.4456 489.2092,-1209.6726 477.8265,-1218.0664"/>
<polygon fill="#c0c0c0" stroke="#c0c0c0" stroke-width="2" points="475.7889,-1215.2205 469.6359,-1223.8456 479.8246,-1220.9401 475.7889,-1215.2205"/>
</g>
<!-- 5 -->
<g id="node6" class="node">
<title>5</title>
<path fill="none" stroke="#d8bc56" stroke-width="2" d="M256,-108C256,-108 157,-108 157,-108 151,-108 145,-102 145,-96 145,-96 145,-84 145,-84 145,-78 151,-72 157,-72 157,-72 256,-72 256,-72 262,-72 268,-78 268,-84 268,-84 268,-96 268,-96 268,-102 262,-108 256,-108"/>
<text text-anchor="middle" x="206.5" y="-87.5" font-family="sans" font-size="10.00" fill="#000000">sample_from_epiread</text>
</g>
<!-- 5&#45;&gt;4 -->
<g id="edge8" class="edge">
<title>5&#45;&gt;4</title>
<path fill="none" stroke="#c0c0c0" stroke-width="2" d="M249.1458,-71.8314C271.849,-62.159 299.9451,-50.1891 323.8742,-39.9944"/>
<polygon fill="#c0c0c0" stroke="#c0c0c0" stroke-width="2" points="325.3328,-43.1775 333.1608,-36.038 322.5891,-36.7376 325.3328,-43.1775"/>
</g>
<!-- 6 -->
<g id="node7" class="node">
<title>6</title>
<path fill="none" stroke="#568ad8" stroke-width="2" d="M208,-1332C208,-1332 143,-1332 143,-1332 137,-1332 131,-1326 131,-1320 131,-1320 131,-1308 131,-1308 131,-1302 137,-1296 143,-1296 143,-1296 208,-1296 208,-1296 214,-1296 220,-1302 220,-1308 220,-1308 220,-1320 220,-1320 220,-1326 214,-1332 208,-1332"/>
<text text-anchor="middle" x="175.5" y="-1311.5" font-family="sans" font-size="10.00" fill="#000000">merge_bioreps</text>
</g>
<!-- 6&#45;&gt;3 -->
<g id="edge6" class="edge">
<title>6&#45;&gt;3</title>
<path fill="none" stroke="#c0c0c0" stroke-width="2" d="M220.1144,-1301.7862C268.6858,-1288.4891 345.8826,-1267.3553 394.2932,-1254.1023"/>
<polygon fill="#c0c0c0" stroke="#c0c0c0" stroke-width="2" points="395.4449,-1257.4158 404.1659,-1251.3995 393.5966,-1250.6642 395.4449,-1257.4158"/>
</g>
<!-- 6&#45;&gt;5 -->
<g id="edge9" class="edge">
<title>6&#45;&gt;5</title>
<path fill="none" stroke="#c0c0c0" stroke-width="2" d="M182.0743,-1295.6321C191.1741,-1268.5223 206.5,-1216.0309 206.5,-1170 206.5,-1170 206.5,-1170 206.5,-234 206.5,-193.876 206.5,-147.4631 206.5,-118.4177"/>
<polygon fill="#c0c0c0" stroke="#c0c0c0" stroke-width="2" points="210.0001,-118.1853 206.5,-108.1854 203.0001,-118.1854 210.0001,-118.1853"/>
</g>
<!-- 25 -->
<g id="node26" class="node">
<title>25</title>
<path fill="none" stroke="#56d88a" stroke-width="2" d="M166,-1188C166,-1188 95,-1188 95,-1188 89,-1188 83,-1182 83,-1176 83,-1176 83,-1164 83,-1164 83,-1158 89,-1152 95,-1152 95,-1152 166,-1152 166,-1152 172,-1152 178,-1158 178,-1164 178,-1164 178,-1176 178,-1176 178,-1182 172,-1188 166,-1188"/>
<text text-anchor="middle" x="130.5" y="-1167.5" font-family="sans" font-size="10.00" fill="#000000">measure_length</text>
</g>
<!-- 6&#45;&gt;25 -->
<g id="edge33" class="edge">
<title>6&#45;&gt;25</title>
<path fill="none" stroke="#c0c0c0" stroke-width="2" d="M169.8007,-1295.7623C162.0915,-1271.0928 148.2687,-1226.8598 139.2416,-1197.9731"/>
<polygon fill="#c0c0c0" stroke="#c0c0c0" stroke-width="2" points="142.4765,-1196.5904 136.153,-1188.0896 135.7951,-1198.6784 142.4765,-1196.5904"/>
</g>
<!-- 7 -->
<g id="node8" class="node">
<title>7</title>
<path fill="none" stroke="#59d856" stroke-width="2" d="M225,-1404C225,-1404 100,-1404 100,-1404 94,-1404 88,-1398 88,-1392 88,-1392 88,-1380 88,-1380 88,-1374 94,-1368 100,-1368 100,-1368 225,-1368 225,-1368 231,-1368 237,-1374 237,-1380 237,-1380 237,-1392 237,-1392 237,-1398 231,-1404 225,-1404"/>
<text text-anchor="middle" x="162.5" y="-1383.5" font-family="sans" font-size="10.00" fill="#000000">cut_regions_from_epireads</text>
</g>
<!-- 7&#45;&gt;6 -->
<g id="edge11" class="edge">
<title>7&#45;&gt;6</title>
<path fill="none" stroke="#c0c0c0" stroke-width="2" d="M165.7804,-1367.8314C167.1708,-1360.131 168.8241,-1350.9743 170.3692,-1342.4166"/>
<polygon fill="#c0c0c0" stroke="#c0c0c0" stroke-width="2" points="173.8428,-1342.8761 172.1754,-1332.4133 166.9542,-1341.6322 173.8428,-1342.8761"/>
</g>
<!-- 8 -->
<g id="node9" class="node">
<title>8</title>
<path fill="none" stroke="#56d86b" stroke-width="2" d="M189.5,-1476C189.5,-1476 103.5,-1476 103.5,-1476 97.5,-1476 91.5,-1470 91.5,-1464 91.5,-1464 91.5,-1452 91.5,-1452 91.5,-1446 97.5,-1440 103.5,-1440 103.5,-1440 189.5,-1440 189.5,-1440 195.5,-1440 201.5,-1446 201.5,-1452 201.5,-1452 201.5,-1464 201.5,-1464 201.5,-1470 195.5,-1476 189.5,-1476"/>
<text text-anchor="middle" x="146.5" y="-1455.5" font-family="sans" font-size="10.00" fill="#000000">merge_regions_file</text>
</g>
<!-- 8&#45;&gt;7 -->
<g id="edge12" class="edge">
<title>8&#45;&gt;7</title>
<path fill="none" stroke="#c0c0c0" stroke-width="2" d="M150.5375,-1439.8314C152.2487,-1432.131 154.2835,-1422.9743 156.1852,-1414.4166"/>
<polygon fill="#c0c0c0" stroke="#c0c0c0" stroke-width="2" points="159.6554,-1414.9344 158.4082,-1404.4133 152.8221,-1413.4159 159.6554,-1414.9344"/>
</g>
<!-- 9 -->
<g id="node10" class="node">
<title>9</title>
<path fill="none" stroke="#d8ac56" stroke-width="2" d="M132,-1548C132,-1548 59,-1548 59,-1548 53,-1548 47,-1542 47,-1536 47,-1536 47,-1524 47,-1524 47,-1518 53,-1512 59,-1512 59,-1512 132,-1512 132,-1512 138,-1512 144,-1518 144,-1524 144,-1524 144,-1536 144,-1536 144,-1542 138,-1548 132,-1548"/>
<text text-anchor="middle" x="95.5" y="-1527.5" font-family="sans" font-size="10.00" fill="#000000">sort_regions_file</text>
</g>
<!-- 9&#45;&gt;8 -->
<g id="edge13" class="edge">
<title>9&#45;&gt;8</title>
<path fill="none" stroke="#c0c0c0" stroke-width="2" d="M108.3695,-1511.8314C114.1835,-1503.6232 121.1696,-1493.7606 127.5646,-1484.7323"/>
<polygon fill="#c0c0c0" stroke="#c0c0c0" stroke-width="2" points="130.5331,-1486.5966 133.4573,-1476.4133 124.821,-1482.5505 130.5331,-1486.5966"/>
</g>
<!-- 11 -->
<g id="node12" class="node">
<title>11</title>
<path fill="none" stroke="#88d856" stroke-width="2" d="M97,-252C97,-252 12,-252 12,-252 6,-252 0,-246 0,-240 0,-240 0,-228 0,-228 0,-222 6,-216 12,-216 12,-216 97,-216 97,-216 103,-216 109,-222 109,-228 109,-228 109,-240 109,-240 109,-246 103,-252 97,-252"/>
<text text-anchor="middle" x="54.5" y="-231.5" font-family="sans" font-size="10.00" fill="#000000">atlas_over_regions</text>
</g>
<!-- 9&#45;&gt;11 -->
<g id="edge16" class="edge">
<title>9&#45;&gt;11</title>
<path fill="none" stroke="#c0c0c0" stroke-width="2" d="M86.805,-1511.8324C74.7698,-1484.9721 54.5,-1432.7885 54.5,-1386 54.5,-1386 54.5,-1386 54.5,-378 54.5,-337.876 54.5,-291.4631 54.5,-262.4177"/>
<polygon fill="#c0c0c0" stroke="#c0c0c0" stroke-width="2" points="58.0001,-262.1853 54.5,-252.1854 51.0001,-262.1854 58.0001,-262.1853"/>
</g>
<!-- 10 -->
<g id="node11" class="node">
<title>10</title>
<path fill="none" stroke="#d88d56" stroke-width="2" d="M166,-180C166,-180 97,-180 97,-180 91,-180 85,-174 85,-168 85,-168 85,-156 85,-156 85,-150 91,-144 97,-144 97,-144 166,-144 166,-144 172,-144 178,-150 178,-156 178,-156 178,-168 178,-168 178,-174 172,-180 166,-180"/>
<text text-anchor="middle" x="131.5" y="-159.5" font-family="sans" font-size="10.00" fill="#000000">calculate_reads</text>
</g>
<!-- 10&#45;&gt;5 -->
<g id="edge10" class="edge">
<title>10&#45;&gt;5</title>
<path fill="none" stroke="#c0c0c0" stroke-width="2" d="M150.4257,-143.8314C159.4857,-135.1337 170.4809,-124.5783 180.3265,-115.1265"/>
<polygon fill="#c0c0c0" stroke="#c0c0c0" stroke-width="2" points="182.7904,-117.613 187.5804,-108.1628 177.9426,-112.5633 182.7904,-117.613"/>
</g>
<!-- 11&#45;&gt;10 -->
<g id="edge14" class="edge">
<title>11&#45;&gt;10</title>
<path fill="none" stroke="#c0c0c0" stroke-width="2" d="M73.9304,-215.8314C83.232,-207.1337 94.5204,-196.5783 104.6286,-187.1265"/>
<polygon fill="#c0c0c0" stroke="#c0c0c0" stroke-width="2" points="107.1621,-189.5493 112.0759,-180.1628 102.3811,-184.4363 107.1621,-189.5493"/>
</g>
<!-- 12 -->
<g id="node13" class="node">
<title>12</title>
<path fill="none" stroke="#56a9d8" stroke-width="2" d="M377,-324C377,-324 298,-324 298,-324 292,-324 286,-318 286,-312 286,-312 286,-300 286,-300 286,-294 292,-288 298,-288 298,-288 377,-288 377,-288 383,-288 389,-294 389,-300 389,-300 389,-312 389,-312 389,-318 383,-324 377,-324"/>
<text text-anchor="middle" x="337.5" y="-303.5" font-family="sans" font-size="10.00" fill="#000000">create_final_atlas</text>
</g>
<!-- 12&#45;&gt;2 -->
<g id="edge4" class="edge">
<title>12&#45;&gt;2</title>
<path fill="none" stroke="#c0c0c0" stroke-width="2" d="M370.5568,-287.8314C387.4677,-278.5368 408.2385,-267.1208 426.2941,-257.1971"/>
<polygon fill="#c0c0c0" stroke="#c0c0c0" stroke-width="2" points="428.376,-260.0468 435.4537,-252.1628 425.0043,-253.9122 428.376,-260.0468"/>
</g>
<!-- 12&#45;&gt;11 -->
<g id="edge17" class="edge">
<title>12&#45;&gt;11</title>
<path fill="none" stroke="#c0c0c0" stroke-width="2" d="M285.9225,-292.8778C238.991,-280.9376 169.5251,-263.2643 118.9512,-250.3975"/>
<polygon fill="#c0c0c0" stroke="#c0c0c0" stroke-width="2" points="119.6549,-246.9651 109.1006,-247.8913 117.9289,-253.749 119.6549,-246.9651"/>
</g>
<!-- 13 -->
<g id="node14" class="node">
<title>13</title>
<path fill="none" stroke="#bed856" stroke-width="2" d="M397,-396C397,-396 278,-396 278,-396 272,-396 266,-390 266,-384 266,-384 266,-372 266,-372 266,-366 272,-360 278,-360 278,-360 397,-360 397,-360 403,-360 409,-366 409,-372 409,-372 409,-384 409,-384 409,-390 403,-396 397,-396"/>
<text text-anchor="middle" x="337.5" y="-375.5" font-family="sans" font-size="10.00" fill="#000000">create_interim_atlas_files</text>
</g>
<!-- 13&#45;&gt;12 -->
<g id="edge18" class="edge">
<title>13&#45;&gt;12</title>
<path fill="none" stroke="#c0c0c0" stroke-width="2" d="M337.5,-359.8314C337.5,-352.131 337.5,-342.9743 337.5,-334.4166"/>
<polygon fill="#c0c0c0" stroke="#c0c0c0" stroke-width="2" points="341.0001,-334.4132 337.5,-324.4133 334.0001,-334.4133 341.0001,-334.4132"/>
</g>
<!-- 14 -->
<g id="node15" class="node">
<title>14</title>
<path fill="none" stroke="#56d8a9" stroke-width="2" d="M384,-468C384,-468 291,-468 291,-468 285,-468 279,-462 279,-456 279,-456 279,-444 279,-444 279,-438 285,-432 291,-432 291,-432 384,-432 384,-432 390,-432 396,-438 396,-444 396,-444 396,-456 396,-456 396,-462 390,-468 384,-468"/>
<text text-anchor="middle" x="337.5" y="-447.5" font-family="sans" font-size="10.00" fill="#000000">unite_atlas_samples</text>
</g>
<!-- 14&#45;&gt;13 -->
<g id="edge19" class="edge">
<title>14&#45;&gt;13</title>
<path fill="none" stroke="#c0c0c0" stroke-width="2" d="M337.5,-431.8314C337.5,-424.131 337.5,-414.9743 337.5,-406.4166"/>
<polygon fill="#c0c0c0" stroke="#c0c0c0" stroke-width="2" points="341.0001,-406.4132 337.5,-396.4133 334.0001,-406.4133 341.0001,-406.4132"/>
</g>
<!-- 15 -->
<g id="node16" class="node">
<title>15</title>
<path fill="none" stroke="#567bd8" stroke-width="2" d="M428,-540C428,-540 247,-540 247,-540 241,-540 235,-534 235,-528 235,-528 235,-516 235,-516 235,-510 241,-504 247,-504 247,-504 428,-504 428,-504 434,-504 440,-510 440,-516 440,-516 440,-528 440,-528 440,-534 434,-540 428,-540"/>
<text text-anchor="middle" x="337.5" y="-519.5" font-family="sans" font-size="10.00" fill="#000000">split_atlas_methylation_and_coverage</text>
</g>
<!-- 15&#45;&gt;14 -->
<g id="edge20" class="edge">
<title>15&#45;&gt;14</title>
<path fill="none" stroke="#c0c0c0" stroke-width="2" d="M337.5,-503.8314C337.5,-496.131 337.5,-486.9743 337.5,-478.4166"/>
<polygon fill="#c0c0c0" stroke="#c0c0c0" stroke-width="2" points="341.0001,-478.4132 337.5,-468.4133 334.0001,-478.4133 341.0001,-478.4132"/>
</g>
<!-- 16 -->
<g id="node17" class="node">
<title>16</title>
<path fill="none" stroke="#d89c56" stroke-width="2" d="M388.5,-612C388.5,-612 286.5,-612 286.5,-612 280.5,-612 274.5,-606 274.5,-600 274.5,-600 274.5,-588 274.5,-588 274.5,-582 280.5,-576 286.5,-576 286.5,-576 388.5,-576 388.5,-576 394.5,-576 400.5,-582 400.5,-588 400.5,-588 400.5,-600 400.5,-600 400.5,-606 394.5,-612 388.5,-612"/>
<text text-anchor="middle" x="337.5" y="-591.5" font-family="sans" font-size="10.00" fill="#000000">aggregate_and_merge</text>
</g>
<!-- 16&#45;&gt;15 -->
<g id="edge21" class="edge">
<title>16&#45;&gt;15</title>
<path fill="none" stroke="#c0c0c0" stroke-width="2" d="M337.5,-575.8314C337.5,-568.131 337.5,-558.9743 337.5,-550.4166"/>
<polygon fill="#c0c0c0" stroke="#c0c0c0" stroke-width="2" points="341.0001,-550.4132 337.5,-540.4133 334.0001,-550.4133 341.0001,-550.4132"/>
</g>
<!-- 17 -->
<g id="node18" class="node">
<title>17</title>
<path fill="none" stroke="#56d8c1" stroke-width="2" d="M380.5,-684C380.5,-684 294.5,-684 294.5,-684 288.5,-684 282.5,-678 282.5,-672 282.5,-672 282.5,-660 282.5,-660 282.5,-654 288.5,-648 294.5,-648 294.5,-648 380.5,-648 380.5,-648 386.5,-648 392.5,-654 392.5,-660 392.5,-660 392.5,-672 392.5,-672 392.5,-678 386.5,-684 380.5,-684"/>
<text text-anchor="middle" x="337.5" y="-663.5" font-family="sans" font-size="10.00" fill="#000000">merge_sorted_files</text>
</g>
<!-- 17&#45;&gt;16 -->
<g id="edge22" class="edge">
<title>17&#45;&gt;16</title>
<path fill="none" stroke="#c0c0c0" stroke-width="2" d="M337.5,-647.8314C337.5,-640.131 337.5,-630.9743 337.5,-622.4166"/>
<polygon fill="#c0c0c0" stroke="#c0c0c0" stroke-width="2" points="341.0001,-622.4132 337.5,-612.4133 334.0001,-622.4133 341.0001,-622.4132"/>
</g>
<!-- 18 -->
<g id="node19" class="node">
<title>18</title>
<path fill="none" stroke="#569ad8" stroke-width="2" d="M386.5,-756C386.5,-756 348.5,-756 348.5,-756 342.5,-756 336.5,-750 336.5,-744 336.5,-744 336.5,-732 336.5,-732 336.5,-726 342.5,-720 348.5,-720 348.5,-720 386.5,-720 386.5,-720 392.5,-720 398.5,-726 398.5,-732 398.5,-732 398.5,-744 398.5,-744 398.5,-750 392.5,-756 386.5,-756"/>
<text text-anchor="middle" x="367.5" y="-735.5" font-family="sans" font-size="10.00" fill="#000000">cpg_filter</text>
</g>
<!-- 18&#45;&gt;17 -->
<g id="edge23" class="edge">
<title>18&#45;&gt;17</title>
<path fill="none" stroke="#c0c0c0" stroke-width="2" d="M359.9297,-719.8314C356.6507,-711.9617 352.738,-702.5712 349.1055,-693.8533"/>
<polygon fill="#c0c0c0" stroke="#c0c0c0" stroke-width="2" points="352.2492,-692.2979 345.1722,-684.4133 345.7876,-694.9902 352.2492,-692.2979"/>
</g>
<!-- 19 -->
<g id="node20" class="node">
<title>19</title>
<path fill="none" stroke="#afd856" stroke-width="2" d="M422.5,-828C422.5,-828 336.5,-828 336.5,-828 330.5,-828 324.5,-822 324.5,-816 324.5,-816 324.5,-804 324.5,-804 324.5,-798 330.5,-792 336.5,-792 336.5,-792 422.5,-792 422.5,-792 428.5,-792 434.5,-798 434.5,-804 434.5,-804 434.5,-816 434.5,-816 434.5,-822 428.5,-828 422.5,-828"/>
<text text-anchor="middle" x="379.5" y="-807.5" font-family="sans" font-size="10.00" fill="#000000">shift_minus_strand</text>
</g>
<!-- 19&#45;&gt;18 -->
<g id="edge25" class="edge">
<title>19&#45;&gt;18</title>
<path fill="none" stroke="#c0c0c0" stroke-width="2" d="M376.4719,-791.8314C375.1885,-784.131 373.6624,-774.9743 372.2361,-766.4166"/>
<polygon fill="#c0c0c0" stroke="#c0c0c0" stroke-width="2" points="375.6653,-765.7018 370.5689,-756.4133 368.7606,-766.8526 375.6653,-765.7018"/>
</g>
<!-- 20 -->
<g id="node21" class="node">
<title>20</title>
<path fill="none" stroke="#78d856" stroke-width="2" d="M411,-900C411,-900 334,-900 334,-900 328,-900 322,-894 322,-888 322,-888 322,-876 322,-876 322,-870 328,-864 334,-864 334,-864 411,-864 411,-864 417,-864 423,-870 423,-876 423,-876 423,-888 423,-888 423,-894 417,-900 411,-900"/>
<text text-anchor="middle" x="372.5" y="-879.5" font-family="sans" font-size="10.00" fill="#000000">separate_strands</text>
</g>
<!-- 20&#45;&gt;17 -->
<g id="edge24" class="edge">
<title>20&#45;&gt;17</title>
<path fill="none" stroke="#c0c0c0" stroke-width="2" d="M345.0106,-863.7646C333.6152,-854.5451 321.6403,-842.2754 315.5,-828 296.494,-783.8136 312.2925,-727.1361 325.1441,-693.869"/>
<polygon fill="#c0c0c0" stroke="#c0c0c0" stroke-width="2" points="328.4947,-694.9191 328.9962,-684.3361 322.0045,-692.2965 328.4947,-694.9191"/>
</g>
<!-- 20&#45;&gt;19 -->
<g id="edge26" class="edge">
<title>20&#45;&gt;19</title>
<path fill="none" stroke="#c0c0c0" stroke-width="2" d="M374.2664,-863.8314C375.015,-856.131 375.9053,-846.9743 376.7373,-838.4166"/>
<polygon fill="#c0c0c0" stroke="#c0c0c0" stroke-width="2" points="380.2256,-838.7051 377.7098,-828.4133 373.2585,-838.0276 380.2256,-838.7051"/>
</g>
<!-- 21 -->
<g id="node22" class="node">
<title>21</title>
<path fill="none" stroke="#d86656" stroke-width="2" d="M417,-972C417,-972 328,-972 328,-972 322,-972 316,-966 316,-960 316,-960 316,-948 316,-948 316,-942 322,-936 328,-936 328,-936 417,-936 417,-936 423,-936 429,-942 429,-948 429,-948 429,-960 429,-960 429,-966 423,-972 417,-972"/>
<text text-anchor="middle" x="372.5" y="-951.5" font-family="sans" font-size="10.00" fill="#000000">format_merged_file</text>
</g>
<!-- 21&#45;&gt;20 -->
<g id="edge27" class="edge">
<title>21&#45;&gt;20</title>
<path fill="none" stroke="#c0c0c0" stroke-width="2" d="M372.5,-935.8314C372.5,-928.131 372.5,-918.9743 372.5,-910.4166"/>
<polygon fill="#c0c0c0" stroke="#c0c0c0" stroke-width="2" points="376.0001,-910.4132 372.5,-900.4133 369.0001,-910.4133 376.0001,-910.4132"/>
</g>
<!-- 22 -->
<g id="node23" class="node">
<title>22</title>
<path fill="none" stroke="#56d87b" stroke-width="2" d="M425.5,-1044C425.5,-1044 319.5,-1044 319.5,-1044 313.5,-1044 307.5,-1038 307.5,-1032 307.5,-1032 307.5,-1020 307.5,-1020 307.5,-1014 313.5,-1008 319.5,-1008 319.5,-1008 425.5,-1008 425.5,-1008 431.5,-1008 437.5,-1014 437.5,-1020 437.5,-1020 437.5,-1032 437.5,-1032 437.5,-1038 431.5,-1044 425.5,-1044"/>
<text text-anchor="middle" x="372.5" y="-1023.5" font-family="sans" font-size="10.00" fill="#000000">filter_excluded_regions</text>
</g>
<!-- 22&#45;&gt;21 -->
<g id="edge28" class="edge">
<title>22&#45;&gt;21</title>
<path fill="none" stroke="#c0c0c0" stroke-width="2" d="M372.5,-1007.8314C372.5,-1000.131 372.5,-990.9743 372.5,-982.4166"/>
<polygon fill="#c0c0c0" stroke="#c0c0c0" stroke-width="2" points="376.0001,-982.4132 372.5,-972.4133 369.0001,-982.4133 376.0001,-982.4132"/>
</g>
<!-- 23&#45;&gt;22 -->
<g id="edge29" class="edge">
<title>23&#45;&gt;22</title>
<path fill="none" stroke="#c0c0c0" stroke-width="2" d="M372.5,-1079.8314C372.5,-1072.131 372.5,-1062.9743 372.5,-1054.4166"/>
<polygon fill="#c0c0c0" stroke="#c0c0c0" stroke-width="2" points="376.0001,-1054.4132 372.5,-1044.4133 369.0001,-1054.4133 376.0001,-1054.4132"/>
</g>
<!-- 24&#45;&gt;2 -->
<g id="edge5" class="edge">
<title>24&#45;&gt;2</title>
<path fill="none" stroke="#c0c0c0" stroke-width="2" d="M444.8622,-1151.615C453.6685,-1124.4838 468.5,-1071.9662 468.5,-1026 468.5,-1026 468.5,-1026 468.5,-378 468.5,-337.876 468.5,-291.4631 468.5,-262.4177"/>
<polygon fill="#c0c0c0" stroke="#c0c0c0" stroke-width="2" points="472.0001,-262.1853 468.5,-252.1854 465.0001,-262.1854 472.0001,-262.1853"/>
</g>
<!-- 24&#45;&gt;23 -->
<g id="edge31" class="edge">
<title>24&#45;&gt;23</title>
<path fill="none" stroke="#c0c0c0" stroke-width="2" d="M421.8454,-1151.8314C414.0886,-1143.3694 404.7198,-1133.1489 396.239,-1123.8971"/>
<polygon fill="#c0c0c0" stroke="#c0c0c0" stroke-width="2" points="398.7162,-1121.4198 389.3788,-1116.4133 393.5561,-1126.1499 398.7162,-1121.4198"/>
</g>
<!-- 25&#45;&gt;10 -->
<g id="edge15" class="edge">
<title>25&#45;&gt;10</title>
<path fill="none" stroke="#c0c0c0" stroke-width="2" d="M131.9504,-1151.8284C134.0007,-1124.5296 137.5,-1071.3034 137.5,-1026 137.5,-1026 137.5,-1026 137.5,-306 137.5,-265.8412 135.1417,-219.4372 133.3821,-190.4031"/>
<polygon fill="#c0c0c0" stroke="#c0c0c0" stroke-width="2" points="136.8599,-189.9376 132.7432,-180.1753 129.8736,-190.3741 136.8599,-189.9376"/>
</g>
</g>
</svg>
